<?xml version="1.0" encoding="UTF-8"?><svg id="b" xmlns="http://www.w3.org/2000/svg" width="360.84" height="358.05" viewBox="0 0 360.84 358.05"><defs><style>.e{fill:none;stroke:#000;stroke-miterlimit:10;stroke-width:3px;}</style></defs><g id="c"><g id="d"><path class="e" d="m253.81,16.35c11.49,5.36,21.33,12.06,31.5,19.5,1.15,6.8,11.07,12.52,15.75,17,3.43,3.28,20.06,21.24,23.5,21,.38-.03.04-1.09.75-1,4.74,6.1,8.79,12.21,12.5,19-4.43-.09-10.67-2.78-15-5-4.42-8.09-16.95-24.34-23.5-31.25C233.49-13.85,117.07-11.41,55.31,62.1c-6.47,7.7-11.83,17.17-16,22.25-1.11,1.35-2.21,2.69-3,4.25-1.75,1.48-12.4,5.22-14,3.25,2.27-4.38,3.91-6.56,6.5-10.5.5,0,.64.71,1.25.5,3.7-1.29,21.8-20.3,25.75-25,5.67-5.94,12.88-10.38,17.75-17,5.38-3.48,10.15-7.98,15.5-11.5,3.56-2.34,9.87-3.35,10.75-8,4.14-2.15,8.17-4.7,12.5-6.5,44.53-18.49,97.77-17.88,141.5,2.5Z"/><path class="e" d="m27.31,137.35c-8.65,10.77-18.78,38.1-17,51-2.95-4.5-5.33-9.34-8-14-.44-.76-.58-1.8-1.5-2,1.4-27.33,8.86-56.14,21.5-80.5,1.6,1.97,12.25-1.77,14-3.25.79-1.56,1.89-2.9,3-4.25-9.38,19.96-16.54,29.95-12,53Z"/><path class="e" d="m10.31,188.35c.18,1.28.78,2.71,1.48,4.12.6,1.2,1.01,2.51.96,3.84-.06,1.5,1.67,6.23,3.07,9.79,3.27,8.31,7.85,16.12,11.5,24.25,2.23,4.98,4.15,10.07,6.5,15,.07.14-.11.68,1,3-7.54.56-15.06-1.31-22-4-1.75-4.46-3.51-8.94-5-13.5C.67,208.99-.11,175.76.81,172.35c2.67,4.66,6.55,11.5,9.5,16Z"/><path class="e" d="m7.81,230.85c1.37,4.6,3.25,9.04,5,13.5,3.06,7.77,6.45,15.2,10.5,22.5h-6c-5.81-11.13-10.4-23.01-14-35,3.17-2.22,1.45-.44,4.5-1Z"/><path class="e" d="m360.31,175.85c.29,18.15-1.81,34.51-6.5,52-1.53,5.7-2.95,9.99-5,15.5-.26-4.73-2.1-.46-3.25,0-2.18.86-4.29.91-4.5,1-4.87,2.15-9.08,6.19-14.75,6,1.08-2.26,1.56-4.87,3-7,.83-.62,1.64-.84,2.5-1.5,2.76-2.11,6-3.68,8.75-6,16.44-13.88,16.24-28.97,16.75-49.25,2.46-4.36,1.39-10.47,3-10.75Z"/><path class="e" d="m325.31,72.85c-.71-.09-.37.97-.75,1-3.44.24-20.07-17.72-23.5-21-4.68-4.48-14.6-10.2-15.75-17,14.84,10.86,28.66,22.42,40,37Z"/><path class="e" d="m337.81,91.85c.45.83,1.05,1.62,1.5,2.5-7.4-.64,7.15,20.85,6,14,1.17,2.92,1.98,5.58,3,8.5-3.44-2.29-13.23-6.14-15-4.5-1.26-4.96-7.92-20.78-10.5-25.5,4.33,2.22,10.57,4.91,15,5Z"/><path class="e" d="m339.31,94.35c2.38,4.62,4.08,9.2,6,14,1.15,6.85-13.4-14.64-6-14Z"/><path class="e" d="m50.81,275.85c3.75,5.04,8.24,9.41,12.5,14,66.88,72.02,166.21,71.81,234,1,3.39-3.54,9.2-9.43,12-13,6.59.34,13.73-.33,19,4-.11.17-.35,1.24-2,3.5-17.59,24.08-41.85,43.71-69,56-48.98,22.18-109.65,21.65-158-2-19.1-9.34-39.26-24.66-53.5-40.5-6.04-6.72-11.62-14.4-16.5-22,2.9-1.75,4.4.54,11.25.5.55,0,8.6-1.19,10.25-1.5Z"/><path class="e" d="m23.31,266.85c1.87,3.38,3.91,6.75,6,10,4.88,7.6,10.46,15.28,16.5,22-.87,1.08-6.66-1.6-7.5-2.25-5.15-3.98-17.5-23.05-21-29.75h6Z"/><path class="e" d="m341.81,259.85c-3.92,7.93-8.48,14.78-13.5,22-5.27-4.33-12.41-3.66-19-4,2.3-2.94,8.73-12.03,10.5-15,2.91-.46,13.07-.87,13.75-1,1.77-.34,5.48-3.86,8.25-2Z"/><path class="e" d="m348.81,243.35c-2.08,5.58-4.36,11.16-7,16.5-2.77-1.86-6.48,1.66-8.25,2-.68.13-10.84.54-13.75,1,1.14-1.91,5.35-10.09,6.5-12.5,5.67.19,9.88-3.85,14.75-6,.21-.09,2.32-.14,4.5-1,1.15-.46,2.99-4.73,3.25,0Z"/><path class="e" d="m322.81,86.85c2.58,4.72,9.24,20.54,10.5,25.5,2.37,9.35,2.54,17.45,1,27-.9,5.56-3.35,13.81-6.5,18.5C316.65,58.81,202.24-2.78,109.56,47.35c-39.06,21.13-70.33,62.55-75.75,107-2.15-1.46-5.97-14.32-6.5-17-4.54-23.05,2.62-33.04,12-53,4.17-5.08,9.53-14.55,16-22.25C117.07-11.41,233.49-13.85,299.31,55.6c6.55,6.91,19.08,23.16,23.5,31.25Z"/><path class="e" d="m309.31,221.85c-2.51,7.42-6.13,14.7-10,21.5-21.18,37.18-59.16,64.26-102,69-13.07,1.45-25.5,1.42-38.5-.5-27.44-4.06-57.35-19.91-76.5-40-38.17-40.04-48.33-97.7-26.5-148.5C92.98,36.85,204.84,14.45,273.56,78.85c38.98,36.53,52.87,92.33,35.75,143Z"/><path class="e" d="m207.3,266.68c-2.25.21-3.83-.29-5.72-1.27-56.86-40.15-107.1-79.2-107.1-85.5,0-6.61,51.39-46.36,109.39-87.14,4.72-2.52,17.73,9.99,18.13,11.9.28,1.35-.09,3.17-.76,4.44-1.86,3.54-53.01,50.95-59.53,59.35-2.52,4-7.51-4.23-18.51,1.11-15.88,7.72-2.74,29.27,16.79,19.99,6.64,8.03,61.12,58.38,62.01,62.36,1.21,5.38-12.06,14.51-14.69,14.76Z"/><path class="e" d="m242.79,185.75c-4.61.64-88.87.59-93.49,0-8.75-1.11-9.83-10.56,1.14-11.74,4.56-.49,87.43-.61,91.97,0,9.1,1.23,8.59,10.61.38,11.74Z"/><path class="e" d="m203.87,92.76l-92.5,79.37c-4.84,4.15-4.86,10.75-.05,14.92l90.26,78.35"/><path class="e" d="m221.99,251.92l-110.54-67.03c-4.36-2.64-4.41-8.04-.11-10.74l110.64-69.48"/><path class="e" d="m230.79,173.72s-7.85,6.41-24.58,6.18c-16.73-.23-37.38-6.18-37.38-6.18"/></g></g></svg>