<?xml version="1.0" encoding="UTF-8"?><svg id="b" xmlns="http://www.w3.org/2000/svg" width="1384.9" height="510.77" viewBox="0 0 1384.9 510.77"><defs><style>.d{fill:none;stroke:#000;stroke-linecap:round;stroke-linejoin:round;stroke-width:6px;}</style></defs><g id="c"><path class="d" d="m1066.59,34.27c-.23,4.43-2.3,7.62-5.97,10.17-7.86,5.47-16.12,10.57-23.14,16.99-8.78,8.04-19.37,13.3-28.6,20.52-8.7,6.81-18.72,11-28.48,15.83-4.88,2.41-10.24,4.23-14.26,8.17-.55.54-.96.62-1.56.7-12.24,1.63-24.27,4.44-36.41,6.57-14.88,2.62-29.52,6.24-44.19,9.68-6.94,1.63-14,3.11-20.66,5.87"/><path class="d" d="m564.84,159.89c-7.12,1.59-14.12,3.5-21.05,5.86-5.76,1.95-11.91,2.93-17.96,3.83-9.79,1.45-19.33,3.92-28.86,6.44-7.5,1.99-15.13,3.6-22.47,6.09-11.77,3.99-23.89,6.78-35.73,10.54-6.69,2.12-13.34,4.53-20.17,6.24-.24.06-.6-.1-.73.02-4.62,4.48-11.04,3.65-16.52,5.6-1.42.5-2.76,1.07-3.75,2.26"/><path class="d" d="m543.09,161.02c-2.38-3.16-6.02-4.73-9.05-7.06-2.2-1.69-3.93-3.81-6.24-5.44-6.66-4.69-14.02-2.81-21.08-2.76-7.13.05-14.28.9-21.37,1.81-7.78.99-15.52,2.39-23.26,3.7-7.76,1.31-15.54,2.54-23.24,4.16-11.04,2.32-22.04,4.82-33,7.5-7.68,1.88-15.28,4.13-22.88,6.36-3.51,1.03-6.77,2.12-8.42,6.28-1.43,3.63-2.62,7.46-5.25,10.73-1.09,1.35-.21,4.56-.45,6.97-.36,3.7-.88,7.64.68,11.21,1.15,2.65,2.93,5.03,4.43,7.53"/><path class="d" d="m223.22,80.39c2.88-2.25,6.28-4.07,8.51-6.84,3.91-4.86,8.99-4.22,13.99-3.96,4.75.25,9.45,1.09,14.25,1.12,8.75.05,17.51.46,26.24.88,7.37.35,14.8.33,22.13,1.33,11.1,1.52,22.32,1.82,33.4,3.6,3.99.64,8.05.87,11.99,1.95.9.24,1.99-.2,2.99-.32"/><path class="d" d="m549.84,211.64c-9.33,1.31-18.82.78-28.15,2.5-3.63.67-7.48.32-11.23.83-7.13.98-14.28,1.69-21.41,2.8-8.08,1.25-16,3.21-23.91,4.98-10.38,2.33-20.81,4.5-31.18,6.9-.89.2-1.75.49-2.63.74"/><path class="d" d="m822.09,255.89c4.65.6,7.6,4.12,10.79,6.85,6.17,5.28,11.88,11.11,17.7,16.78,7.79,7.59,15.35,15.41,23.31,22.81,5.31,4.94,10.09,10.44,16.02,14.76,2.34,1.7,4.74,3.3,7.21,4.75,2.96,1.75,5.99,3.48,8.16,6.1,2.9,3.5,6.39,3.98,10.14,2.44,1.39-.57,2.94-.5,4.18-1.37"/><path class="d" d="m846.47,115.64c7.05,1.33,11.67,5.81,15.42,11.6,1.6,2.48,2.23,5.43,3.03,8,1.45,4.67,4.91,5.28,8.18,5.38,7.12.22,14.24.63,21.37.69,7.62.06,15.28.44,22.9,1.56,4.18.61,8.49.7,12.73,1.27,7.5,1.01,15.03,1.83,22.49,3.05,7.91,1.29,15.82,2.7,23.62,4.52,7.7,1.8,15.3,4.07,22.88,6.35,3.82,1.15,7.61,2.41,11.35,3.87,2.3.9,5.43-.19,8.16-.56,8.84-1.2,17.67-1.63,26.63-1.23,11.6.51,23.24.13,34.87.12,1.26,0,2.43-.95,3.75-.37"/><path class="d" d="m1081.22,107.39c-7.62.5-15.25,1.04-22.88,1.49-19.36,1.15-38.75.88-58.12.62-6.74-.09-13.5-.45-20.25-.67-4-.13-7.96-.97-12-.75-.48.03-1-.7-1.5-1.07"/><path class="d" d="m1153.22,57.14c4.08,4.17,8.28,8.28,12.58,12.14,2.33,2.09,6.64,2.49,10.29,2.48,10.1-.03,20.05,1.65,29.99,3.09,14.12,2.05,28,5.47,41.22,10.89,9.45,3.88,18.76,8.23,27.42,13.78"/><path class="d" d="m586.22,232.27c-.71,2.67-2.21,4.26-4.79,5.76-10.39,6.05-19.96,13.33-29.33,20.86-12.6,10.11-24.02,21.44-34.87,33.38"/><path class="d" d="m581.34,224.77c-3.26-1.88-4.59,1.73-6.24,2.83-13.73,9.15-27.44,18.34-40.74,28.15-7.56,5.57-14.82,11.59-22.77,16.64"/><path class="d" d="m807.09,322.27c3.73,2.89,3.24,7.48,3.94,11.28,1.58,8.55,3.73,17.05,3.96,25.84.26,9.91,2.63,19.63,2.44,29.63-.06,3.23,1.64,6.63,2.13,10.11,1.18,8.4,3.3,16.66,4.1,25.13.08.84-.05,2.07,1.06,2.63"/><path class="d" d="m1086.09,159.14c2.68-.86,5.6.07,8.31-1.39,1.35-.73,2.49,1.49,4.06,1.79,7.83,1.52,15.59,3.22,23.62,3.86,10.13.81,19.95,3.52,29.25,7.76,3.56,1.62,7.01,3.48,10.51,5.23"/><path class="d" d="m314.72,45.52c1.66,2.16,3.93,3.59,6.39,4.45,6.81,2.37,12.33,6.9,18.31,10.63,4.82,3,9.51,6.31,13.19,10.79,1.44,1.76,3.14,3.1,3.89,5.59.97,3.2,4.79,3.48,7.39,4.84,14.16,7.42,28.49,14.51,42.68,21.88,3.03,1.57,5.59,3.96,8.6,5.66,1.32.75,2.9,1.96,2.68,4.04"/><path class="d" d="m1128.09,17.39c-9.52,2.25-19.3,2.99-28.87,4.91-8.32,1.67-16.5,3.92-24.36,7.14-1.27.52-2.37,1.6-3.37,2.6-1.5,1.5-3.53,2.01-5.26,1.75-6.83-1.01-12.88,1.69-19.14,3.48-10.38,2.97-20.75,5.99-31.13,9-.76.22-1.93.28-2.19.78-3.08,6.09-9.67,5.52-14.72,7.78-3.74,1.67-7.65,3.12-11.61,4.12-9.35,2.37-17.53,7.64-26.63,10.5-9.39,2.96-18.56,6.54-28.03,9.33-6.09,1.79-12.14,4.31-18.1,6.8-7.41,3.1-14.91,6-22.51,8.58-2.86.97-4.9,3.74-8.22,3.48"/><path class="d" d="m824.72,150.89c-5.15.23-9.98-1.61-14.98-2.37-2.01-.3-3.99-.6-6.02-.63"/><path class="d" d="m295.22,45.52c-8.37-.62-16.75-1.24-25.12-1.88-4.75-.36-9.49-.85-14.25-1.1-10.87-.57-21.75-1.46-32.62-1.4-10.62.06-21.3-.2-31.89,1.29-1.15.16-1.75.85-2.59,1.26-1.94.96-3.65,2.44-6.02,2.21-1.54-.15-2.55.83-3.35,1.89-1.65,2.18-3.58,4-6.03,5.22-.66.33-1.4,1.82-1.73,1.08-.56-1.29-2.48-2.72-.53-4.46.93-.83,2.04-1.59,2.27-2.98"/><path class="d" d="m884.34,240.89c15.92,6.29,29.97,16.26,45.68,23.04,6.66,2.87,13.6,2.68,20.33,4.31,3.1.75,6.3,1.07,9.36,1.94,5.16,1.47,6.39,1.01,9.01-4.17"/><path class="d" d="m1184.34,49.64c-5.37.88-10.75,1.74-16.12,2.63-1.38.23-2.92.18-4.1.8-6.66,3.49-13.68,3.62-21.03,3.47-10.99-.21-22.07-.04-32.98,1.16-9.64,1.06-19.31,2.23-28.93,3.68-9.09,1.37-18.11,3.41-27.33,4.09-5.52.41-10.92,1.97-16.5,2.25-1.36.07-2.59.49-3.75-.46"/><path class="d" d="m584.72,196.27c-.25-.13-.58-.42-.74-.35-5.07,2.22-10.09,1.52-14.99-.46-1.41-.57-2.53-.03-3.77.07-1.54.13-3.48-.34-3.99-1.22-1.72-2.91-4.65-3.09-7.26-4.04-1.96-.71-3.9-1.2-5.69-2.55-2.57-1.94-5.59-.35-8.15.4-5.56,1.64-11.26,1.81-16.91,2.53-1.14.15-2.41.22-3.35.78-5.69,3.41-12.13,3.7-18.41,4.38-5.64.61-10.81,3.14-16.49,3.48-7.57.45-14.94,2.32-22.47,3.22-9.25,1.1-18.85,1.08-27.71,3.75-10.69,3.22-21.54,2.8-32.32,3.88-1.87.19-3.61-.07-5.26-1.11-2.92-1.83-5.66-1.18-8.65.28-3.59,1.75-7.66,2.04-11.58,2.72-1.91.33-4.14-.16-5.33,2.2-.25.5-1.42.58-2.18.78-8.9,2.28-17.89,4.04-27,5.28-3.37.46-6.63,1.76-10.13,1.13-.34-.06-.98.12-1.09.37-1.6,3.67-5.28,3.48-8.29,4.47-6.84,2.24-13.84,4.02-19.91,8.21-2.13,1.47-4.08,2.94-5.21,5.3"/><path class="d" d="m369.09,169.64c-4.19-1.02-8.5.06-12.79-.97-2.93-.7-6.23-.05-9.33.25-3.76.37-7.49.26-11.26,0-7.37-.51-14.78-.52-22.1-1.32-2.32-.25-4.96.06-7.14-1.35-.9-.58-1.7-.51-2.64-.01-3.39,1.8-7.12,2.14-10.87,2.26-13.06.42-25.98,2.27-38.58,5.43-9.64,2.41-18.67,6.74-25.55,14.45-.4.45-.92.79-.74,1.51"/><path class="d" d="m429.09,230.77c-1.97,1.16-4.18,1.44-6.37,1.9-5.93,1.24-9.76,4.78-12.09,10.44-1.61,3.9-4.74,7.09-5.93,11.28-.41,1.46-1.29,2.37-2.98,2.67-9.95,1.78-19.89,3.61-29.63,6.34"/><path class="d" d="m313.97,43.64c3.51-1.91,6.87-1.91,10.93-.99,5.22,1.18,10.1,3.33,15.31,4.4,1.06.22,2.09.84,2.99,1.48,1.86,1.34,3.74,1.54,6.03,1.18,4.61-.73,8.84,0,12.42,3.62,3.08,3.12,7.65,3.41,11.58,4.9,5.91,2.25,12.24,3.27,18.01,5.98,1.07.5,2.69.78,3.69.34,3.14-1.39,5.8-.21,8.68.8,9.59,3.36,19.24,6.52,28.84,9.85.53.18,1.34.08,1.47.34,2.27,4.55,6.94,4.53,10.88,6.1,2.43.96,4.37.76,6.82.42,3.86-.54,7.72,1.15,10.77,3.33,4.4,3.15,9.28,4.94,14.35,5.34,7.13.57,13.39,3.44,19.84,5.85,9.46,3.52,18.75,7.5,28.16,11.16,4.07,1.59,7.31,3.8,7.05,8.65-.16,3,1.45,6-.89,9.13-1.27,1.71,1.23,4.11,1.89,6.24"/><path class="d" d="m708.47,64.27c3.16-3.33,7.82-3.07,11.64-4.85,1.42-.67,3.21-.71,4.45-1.58,6.14-4.29,12.18-2.37,17.15,1.36,4.6,3.46,9.63,4.46,14.78,4.94,8.11.76,14.23,4.76,19.01,10.71,4.13,5.13,4.3,11.33-3.26,14.94-1.21.58-2.26,1.48-3.39,2.23"/><path class="d" d="m1203.47,33.52c-3.05-3.15-7.03-1.34-10.52-1.72-5.09-.56-10.24-.54-15.37-1.16-3.68-.45-7.49.25-11.24.24-10.64-.03-21.29.25-31.86,1.26-10.04.96-20.07,2.13-30.03,3.89-7.89,1.39-15.97,1.68-23.98,2.35-2.47.2-4.74-.52-6.37-2.59"/><path class="d" d="m1296.09,3.89c.15.9-.57,1.18-1.12,1.09-6.34-1.03-12.81.56-19.15-1.02-1.88-.47-3.98-.11-5.98-.06-1.62.04-3.19-.04-4.5-1.14-2.59-2.16-5.7-1.63-8.62-1.45-8.13.49-16.25,1.21-24.38,1.82-.74.06-1.53.62-2.24,0-5.31-4.54-11.02-.42-16.51-.48-1.33-.01-4.07-.61-5.25,1.61"/><path class="d" d="m1183.59,104.39c-2.88-2.25-6.51-1.98-9.77-2.5-7.98-1.26-15.83-2.83-23.19-6.22-1.17-.54-2.2-.45-3.02-.21-5.53,1.64-11.3,1.51-16.92,2.39-4.84.76-9.69,1.69-14.16,3.34-5.18,1.92-10.67,3.22-15.44,6.19-1.07.66-2.27.49-3.37.34-5.16-.69-10.27-.41-15.38.41"/><path class="d" d="m880.22,288.52c7.62,7,15.44,13.81,22.81,21.06,5.98,5.89,12.83,11.01,17.25,18.35.57.95,1.15,1.12,1.94,1.06,1.34-.1,2.53.39,3.75.78"/><path class="d" d="m180.09,23.39c-1.99-1.38-7.54-2.78-9.38-2.67-1.61.09-3.28-.05-4.87-.37-2.55-.51-4.89-.9-6.03,2.28-.27.76-1.22.54-1.83.81-7.09,3.11-14.3,5.21-22.11,6.25-6.13.82-12.26,1.41-18.39,2.17-2.77.34-6.11,1.37-8.28,3.9"/><path class="d" d="m595.59,299.77c-5.47,3.9-10.49,8.1-10.12,15.75.09,1.83-.02,3.45-1.44,4.94-.74.77-1.08,2.17-1.15,3.32-.56,8.73-3.03,17.17-3.82,25.87-.32,3.52-1.47,7.02-1.35,10.5.18,5.22-3.09,7.36-6.87,9.38"/><path class="d" d="m1236.09,145.64c-2,1.12-4,2.24-6,3.38-4.51,2.56-10.06,3.22-14.11,6.2-4.79,3.52-8.65,8.47-13.7,11.71-9.93,6.38-20.69,11.09-32.19,13.98-.65.16-1.25.49-1.88.74"/><path class="d" d="m871.59,234.14c-8.37-3.87-16.64-8.01-25.16-11.54-6.71-2.78-13.72-4.83-20.59-7.21"/><path class="d" d="m819.84,227.39c2.82,3.01,6.86,4.21,10.26,6.13,10.41,5.9,20.49,12.28,30.62,18.61.24.15.5.25.75.38"/><path class="d" d="m633.09,201.52c-4.92.16-9.68-1.45-14.63-1.19-1.26.07-2.37-.92-3.38-1.8-2.91-2.53-6.16-3.05-9.74-1.53-2.15.92-4.22.86-6.39-.33-7.85-4.31-16.42-6.45-25.09-8.34-5.05-1.1-9.71-1.21-13.89,2.31"/><path class="d" d="m133.59,137.39c4.29.21,6.49,2.58,8.81,6.25,5.14,8.11,12.88,13.55,21.52,17.83,4.48,2.22,9.23,3.33,13.92,4.79"/><path class="d" d="m516.84,240.89c-8.29,4.78-17.18,8.4-25.21,13.75-4.93,3.29-10.67,5.37-16.04,8"/><path class="d" d="m562.59,6.14c-5.42,3.17-6.4,8.74-2.67,13.53,2.39,3.06,5.7,5.29,8.02,8.07,3.46,4.13,7.97,7.95,9.23,13.66.5,2.24,2.62,3.17,3.51,5.2,1.97,4.48,2.5,9.27,3.15,13.94,1.25,9.08,4.61,17.62,6.15,26.6.98,5.73,3.54,10.98,5.24,16.5.76,2.47,1.84,3.91,4.91,2.35,2.51-1.28,4.38.77,5.93,2.55.76.88,1.27,1.98,1.9,2.98"/><path class="d" d="m610.22,221.77c-2.17,3.74-5.06,5.98-9.76,5.72-2.74-.15-5.46,3.12-4.79,5.89,2.74,11.3-2.81,20.17-7.92,29.29-2.59,4.62-6.15,9-4.62,15,.25.97-.9,2.21-.99,3.36-.15,2.06-.6,4.43,1.83,5.6,3.96,1.89,2.06,4.91.98,7.08-1.24,2.46-2.91,4.94-5.49,6.44"/><path class="d" d="m576.09,366.52c1.38,3.74-.37,7.35-.93,10.85-1.53,9.45-2.55,19.1-5.93,28.11-1.8,4.81-1.85,9.85-3.2,14.69-.96,3.47.04,6.57,3.31,8.61"/><path class="d" d="m369.09,264.14c-6.75,2.13-13.65,3.88-20.21,6.48-6.4,2.54-13.03,4.18-19.54,6.27"/><path class="d" d="m575.72,254.77c-5.85,2.06-9.23,7.28-13.84,10.92-4.52,3.57-8.39,7.83-12.13,12.24-2.25,2.65-5.45,4.51-7.77,7.21-3.41,3.96-7.55,7.12-10.75,11.44-2.95,3.98-7.34,7.09-11.01,10.67-2.07,2.02-2.84,4.9-5.18,6.84-3.11,2.57-6.39,4.44-10.07,6.18-4.27,2.02-7.68,5.92-11.35,9.14-3.46,3.03-23.26-1.69-26.64,1.43"/><path class="d" d="m195.09,112.64c-16.79,2.28-32.11,8.5-46.5,17.25"/><path class="d" d="m586.22,71.39c-2.16,2.23-2.94,9.66-2.49,11.97,1.66,8.57,3.71,17.07,5.97,25.5.58,2.18.59,4.89,2.9,6.4"/><path class="d" d="m574.59,215.77c-6.62,2.75-13.16,5.76-19.9,8.17-6.52,2.33-12.62,5.58-19.1,7.95"/><path class="d" d="m793.97,399.89c.28,5.73-.85,11.11-2.84,16.56-1.92,5.23-3.6,10.52-6.1,15.53-.64,1.28-.88,2.71-2.68,2.39-3.15-.57-5.85.48-8.21,2.32-1.35,1.05-2.43.61-3.8.37-6.21-1.12-9.54-5.52-12.37-10.54"/><path class="d" d="m1220.72,10.27c3.65,3.6,8.61,3.54,13.14,4.42,5.78,1.13,11.74.82,17.6,1.31,6.31.53,12.8.55,18.76,3.27"/><path class="d" d="m676.97,180.14c-2.21-5.8-3.89-11.8-5.8-17.69-1.81-5.57-1.96-11.68-2.81-17.56-.16-1.13.77-1.02,1.49-1.13,3.38-.49,6.78-.85,10.12-1.53,6.38-1.29,10.63,2.8,14.86,6.21,1.33,1.07,1.27,4.33,1.2,6.56-.16,4.82.63,9.41,2.33,13.88"/><path class="d" d="m1230.84,114.89c-5.75-2-11.39-4.42-17.28-5.89-6.88-1.72-13.97-2.61-20.97-3.86"/><path class="d" d="m1007.34,229.64c-4.03-1.43-8.41-1.91-11.99-4.51-.71-.52-1.21-.72-2.28-.46-4.55,1.12-9.4.73-13.83,2.4-2.79,1.05-5.28-.14-7.47-.95-8.66-3.21-17.59-5.05-26.68-6.19-2.56-.32-4.61-2.94-7.49-1.55"/><path class="d" d="m719.52,239.01c-2.24,7.96-2.2,15.96-.55,24"/><path class="d" d="m928.97,240.52c-12.27-5.14-24.46-10.49-37.12-14.62"/><path class="d" d="m1347.47,70.64c-5.69,10.44-15.56,15.49-25.91,19.78-1.56.65-3.51.22-5.27,1.09-1,.49-.87-1.42-1.44-2.13"/><path class="d" d="m354.84,294.14c-4.63,4.19-10.2,7.19-14.61,11.64-1.1,1.11-2.17.64-3.4.38-6.43-1.35-12.41-3.61-17.24-8.27"/><path class="d" d="m682.97,478.27c-2.76,2.8-6.13,2-9.36,1.43-1.08-.19-2.29-.57-2.95.13-1.27,1.35.35,2.08,1.07,2.94,2.11,2.51,4.26,5,6.37,7.51,2.56,3.04,5.06,5.99,6.9,9.67,2.79,5.57,7.01,10,14.1,9.82"/><path class="d" d="m1164.09,185.39c-11.11,2.96-53.84,15.11-65.25,16.5-.91.11,12.8-1.61,12-1.5"/><path class="d" d="m1013.34,162.52c1.68,6.26,5.18,11.63,8.09,17.33,3.61,7.05,5.82,14.72,2.78,22.8"/><path class="d" d="m522.84,223.64c-4.31.46-8,2.74-12.02,4.08-7.11,2.36-14.03,5.19-20.99,7.9-.69.27-1.49.27-2.24.39"/><path class="d" d="m747.84,25.83c-1.03,2.56-11.91,21.54-13.88,23.81"/><path class="d" d="m622.59,406.64c-5.14.84-9.28-2.98-14.25-3.04-1.29-.02-2.81-1.54-3.71.43-.76,1.66-1.6,3.63,0,5.19,1.86,1.81,2.11,4.2,3.08,6.36,2.92,6.52,5.95,13,9.53,19.24,2.08,3.63,5.74,3.85,8.7,5.61,4.73,2.82,9.38,5.8,13.86,9.02,2.02,1.45,4.31,2.75,6.46,3.1,2.84.45,4.27,1.79,5.62,3.95,1.97,3.14,4.46,5.5,8.6,5.33,1.11-.05,2.29.59,3.36,1.08,2.52,1.15,4.96,2.13,7.86,2.42,2.46.25,5,1.36,6.85,3.87,5.23,7.07,13.05,11.03,20.17,15.81"/><path class="d" d="m1074.84,290.39c-6.28,3.67-12.71,6.88-20.25,6.75-1.01-.02-1,1.05-1.53,1.46-3.71,2.84-6.93,6.54-11.97,7.17"/><path class="d" d="m282.09,114.89c1.97.95,4.27.98,6.06,2.56.88.78,2.48.89,3.67.39,1.16-.49,2.28-.28,3.4-.29,11.87-.17,23.75-.33,35.62-.39,12.62-.06,25.26.35,37.87-.17,6.36-.26,12.77-.46,19.15-1.15,4.41-.48,8.98-.52,13.48-.55,5.42-.04,10.77-.83,16.14-1.3,5.41-.48,10.97.95,16.48,1.25,12.48.69,24.73,3.15,37.11,4.61,8.3.98,16.48,2.85,24.77,3.99,6.59.91,13.36.75,19.83,2.11,5.11,1.08,9.84,1.48,14.66-.55"/><path class="d" d="m1025.34,208.64c4.66,1.71,9.34,2.51,14.44,2.55,3.67.02,7.74,1.2,11.4,2.44,7.63,2.58,15.68,3.32,23.29,5.87,5.27,1.77,10.24,3.98,14.67,7.45,1.5,1.18,2.44,2.46,2.95,4.19"/><path class="d" d="m682.22,159.14c1.31,5.31-1.76,9.96-2.25,15"/><path class="d" d="m882.47,90.89c1.09,1.87.07,4.07,1.07,6.03.77,1.52-.82,1.78-1.82,2.22-5.88,2.62-11.82,5.11-17.6,7.93-3.51,1.71-6.87,3.81-10.1,6.03-1.09.75-1.55,2.42-2.3,3.67"/><path class="d" d="m595.97,312.89c10.76-.48,20.07,3.33,28.07,10.19,5.41,4.64,12.65,4.66,18.43,8.18,2.31-2.13,5.67,1.23,7.88-1.5"/><path class="d" d="m777.84,151.27c-5.54,1.7-10.81,4.15-16.87,4.3-3.34.08-4.21,4.01-3.98,6.56.7,7.75-2.92,14.2-5.4,21.01"/><path class="d" d="m172.59,19.64c0-4.6-2.41-6.5-7.13-6.07-1.83.17-3.7.13-5.67-.52-2.14-.71-4.76-1.67-7.06-.14-2.7,1.8-5.51,2.16-8.65,1.52-2.71-.56-5.49-.79-8.24-1.16"/><path class="d" d="m794.72,20.69c15.75,6.58,9,12.53,7.87,21.08.11,13.03-4.26,8.84-3.9,14.26.42,6.33-.34,12.74-.59,19.11"/><path class="d" d="m1119.09,126.52c-3.21,5.29-7.02,10.02-11.53,14.35-4.99,4.79-9.7,10.01-12.09,16.78"/><path class="d" d="m797.72,75.89c1.64,5.38,3.69,15.26,2.9,20.61-.13.88-.28,1.78-.25,2.64.14,3.66-.96,6.94-2.63,10.14-1.27,2.42-3.05,2.31-4.86,1.05-.98-.67-1.67-1.87-2.26-2.96-.76-1.43,1.02-1.51,1.4-2.27,1.76-3.5,2.33-7.36,2.66-11.22.38-4.36.54-8.75.77-13.12.1-1.94.85-3.55,2.26-4.87"/><path class="d" d="m729.84,311.39c3.74.02,7.06-.45,9.88-3.64,1.76-1.99,4.27-3.54,7.77-2.89,3.58.67,6.99-.8,10.6-2.13,6.44-2.37,12.89-6.9,20.5-4.09,1,.37,2,.75,3,1.12"/><path class="d" d="m280.1,260.81c5.57,4.55,21.39,21.83,28.61,23.28.24.05,1.04.02,1.22,1.04.8,4.35,3.98,7.29,6.67,10.51"/><path class="d" d="m930.84,240.89c4.28,3.32,9.53,4.69,14.3,7.02,5.22,2.56,10.7,4.58,15.65,7.67.29.18.6.31.79.28,4.38-.93,8.8.38,13.12-.09,4.31-.47,8.22-2.67,11.97-4.83,1.19-.69,2.41-1.11,3.38-.61,3.1,1.6,6.48,1.87,9.79,2.56"/><path class="d" d="m1022.34,278.39c10.96,4.99,21.41,10.85,31.12,18"/><path class="d" d="m134.34,42.89c-3.84,2.18-8.3,2.05-12.39,3.34-5.64,1.77-11.54,2.57-17.3,3.91-2.31.54-5.91,2.94-8.19-.87"/><path class="d" d="m834.47,172.27c2.13-2.37,4.23-4.77,6.38-7.12,1.58-1.72,3.24-1.63,5.64-1.3,10.66,1.45,20.95,4.54,31.47,6.59,9.05,1.76,17.96,4.22,27.02,5.88,11.32,2.07,22.5,4.78,33.77,7.01,5.31,1.05,10.58,2.51,16.07,3,3.98.36,8.24,1.14,11.9,2.4,3.77,1.3,7.5,2.39,11.37,3,5.17.81,10.04,2.9,15.36,3.15,2.24.1,4.63,1.08,5.63,3.64"/><path class="d" d="m1321.59,24.89c-10.27-1.77-20.39-4.34-30.75-5.62"/><path class="d" d="m485.34,237.52c-8.43,2-16.31,5.59-24.38,8.62-2.11.79-4.25,1.51-6.37,2.26"/><path class="d" d="m201.84,60.52c11.35.97,22.43,3.1,33,7.5"/><path class="d" d="m368.34,238.27c-9,1.25-17.99,2.61-27,3.72-7.59.93-15.19,1.18-22.88,1-4.67-.11-9.22-1.24-13.87-.95-1.89.12-3.85-.35-5.17-1.26-2.76-1.88-5.35-.51-7.52.28-4.04,1.46-8.82,2.37-10.56,7.34"/><path class="d" d="m736.97,457.27c1.3,4.28,2.66,8.52,1.91,13.13-.61,3.77-2.89,6.75-5.79,8.37-1.81,1.01-4.71.76-6.99,1.75"/><path class="d" d="m1309.59,96.89c-4.88,2.75-9.75,5.51-14.63,8.24-1.16.65-2.37.98-3.73,1.22-4.54.8-7.99,3.5-10.91,7.02-5.61,6.77-12.56,11.57-20.96,14.33-1.99.65-3.89,1.62-5.36,3.61-3.54,4.77-8.28,8.33-13.41,11.32"/><path class="d" d="m600.47,374.39c-2.1,4.61-2.42,9.08-1.42,14.31,1.05,5.44,2.69,10.21,5.92,14.57"/><path class="d" d="m890.72,273.52c-9-7.45-19.04-13.45-28.5-20.25"/><path class="d" d="m866.72,139.27c-2.55,5.23-7.65,7.65-12.02,10.85-1.9,1.39-4.11,2.36-5.95,3.81-2.84,2.24-3.55,5.61-4.15,8.96"/><path class="d" d="m705.84,104.77c-2.44,2.36-3.87,5.12-3.78,8.63.04,1.5-4.71,4.62-5.46,3.65-1.48-1.89-2.63-.52-3.87-.25-2.34.51-3.62-.06-4.21-2.63-.45-1.97-1.67-3.77-2.54-5.64"/><path class="d" d="m613.59,242.77c-3.51,1.47-2.4,5.46-4.37,7.97-4.47,5.7-6.02,12.97-6.8,19.81-1.07,9.41-4.22,18.2-6.02,27.36-.42,2.17-.58,4.66.09,6.69.65,1.97.64,3.48-.11,5.31-1.22,3-1.18,6.05-1.08,9.37.13,4.54-.68,9.22-.88,13.86-.3,7.02-.15,13.99.18,21.01.26,5.38,1.26,10.37,2.89,15.36,1.1,3.38,7.55,7.82,10.83,7.03,3.84-.92,7.72-.09,10.78,1.14,4.37,1.75,8.64.69,12.88,1.52,6.22,1.23,12.45-.9,18.75-.46,2.44.17,5.1-1.11,7.47-2.15,5.45-2.4,9.88-.13,14.27,2.67"/><path class="d" d="m705.09,159.89v20.25"/><path class="d" d="m627.47,279.14c-.06-5.48-5.98-11.8-11.25-12-2.6-.1-8.54,5.54-8.14,8.23.32,2.16.07,4.27.24,6.39.36,4.46,3.45,7.01,7.9,6.37,1.1-.16,1.8.54,2.65,1.09,6.03,3.9,8.95,3.73,15.35-.72"/><path class="d" d="m1296.47,5.02c8.62,1.25,17.31,2.2,25.85,3.86,5.26,1.02,10.39,2.75,15.77,3.27,5.87.57,11.55,2.94,17.64,1.55,1.91-.44,3.51,1.11,5.24,1.81,4.07,1.63,8.02,3.4,11.67,5.94,3.95,2.75,6.1,6.44,7.03,10.95.28,1.34.22,2.66,1.92,2.99"/><path class="d" d="m915.84,78.89c.21-1.77-1.29-1.29-1.85-1.07-4.22,1.71-8.52,3.34-12.82,4.67-11.86,3.68-23.04,9.08-34.82,12.91-9.19,2.99-17.53,8.01-26.63,11.24-.79.28-1.72.41-1.88,1.5"/><path class="d" d="m798.47,294.52c5.14,3.72,8.92,8.65,12.38,13.87.34.52,1.14,1.07,1.06,1.49-1.11,6.45,4.59,10.83,5.01,16.88.39,5.53,1.45,11,2.17,16.51.67,5.1.2,10.49,1.16,15.29,1.08,5.43.5,10.88,1.76,16.23,1.63,6.91,2.74,13.96,3.77,20.99.41,2.79,1.15,5.44,2.41,7.82,1.24,2.34,1.34,4.3-.09,6.42"/><path class="d" d="m798.47,227.39c-.68,3.71-.62,7.52-2.89,10.95-1.34,2.03-.58,4.55,1.4,6.3,5.21,4.62,8.63,10.65,12.76,16.12,3.18,4.22,4.54,9.36,7.15,13.86.65,1.13,1.72,2.02,2.59,3.02"/><path class="d" d="m280.59,114.52c-8.67-2.26-17.39-4.26-26.25-5.62"/><path class="d" d="m798.84,274.64c-1.5-2.22-2.87-4.55-4.89-6.35-.39-.35-.36-1.77-1.48-.77-.45.4-.92.79-.75,1.5,1.38,5.87,2.6,11.79,4.17,17.61,1.4,5.2,2.41,10.34,1.5,15.77-.9,5.37.59,8.14,5.2,10.88,1.31.78,2.63,1.61,3.73,2.65,1.14,1.08,1.15,2.44.89,4.11-.42,2.73-2.66,2.48-4.23,3.36"/><path class="d" d="m1313.34,42.14c-8.68-3.09-17.92-4.46-26.25-8.62"/><path class="d" d="m673.97,54.14c.63.38,1.28.71,1.87,1.13,3.21,2.28,6.51,3.95,8.56,8.09,2.02,4.07,5.7,7.75,9.23,10.84,2.62,2.29,1.39,4.72,1.96,6.97,1.4,5.49.05,11.22.76,16.86.3,2.41-1.35,4.99.12,7.49"/><path class="d" d="m750.84,344.02c1.57.19,2.9.02,4.57-.56,5.65-1.94,11.5-.9,17.18.59,1.56.41,3.01,1.22,4.51,1.84"/><path class="d" d="m480.84,296.39c-4.82,5-10.63,8.85-15.75,13.5-3.27,2.98-6.5,6-9.75,9"/><path class="d" d="m1238.34,51.14c5,1.12,10,2.24,15,3.38,3.75.86,7.5,1.75,11.25,2.62"/><path class="d" d="m107.72,36.52c-4.81-2.4-9.84-2.49-15-1.51-6.17,1.17-12.35,2.33-18.37,4.14"/><path class="d" d="m1223.34,47.02c-7.57,1.34-15.22,1.33-22.87,1.59-3.36.11-6.83-.07-10.13,1.04"/><path class="d" d="m183.84,84.14c-2.88,1.2-6.02.85-9.01,1.43-5.63,1.09-11.2,2.3-16.49,4.57"/><path class="d" d="m705.47,254.77c-1.68,8.42,6.56,48.19-7.5,93.38"/><path class="d" d="m852.09,186.14c7.03,1.22,14.04,2.49,21.01,4.08,11.71,2.67,23.42,5.48,35.27,7.33,4.74.74,9.72.96,14.59,1.34"/><path class="d" d="m846.09,258.89c5.31,4.7,11.13,8.81,16.12,13.88,2.39,2.42,4.99,4.58,7.88,6.37"/><path class="d" d="m1231.22,3.89c-3.88,3.7-9.28,4.7-13.92,5.28-7.15.9-14.45,1.39-21.71,1.84"/><path class="d" d="m1254.09,29.77c-7.97-1.19-15.91-2.84-24-2.57-5.51.18-11.09.02-16.5,1.45-3.33.88-5.48,4.48-5.25,8.61"/><path class="d" d="m259.59,205.27c7.88.66,15.68,2.27,23.62,2.25,1.78,0,3.6-.22,5.25.75"/><path class="d" d="m635.72,63.52c-2.55,2.4-1.58,5.38.47,6.58,4.24,2.47,5.17,5.67,5.37,10.28.16,3.67,2.31,7.25,3.51,10.89.36,1.09.52,2.24.77,3.37"/><path class="d" d="m655.59,71.02c2,1.83,2.38,4.11,2.3,6.75-.17,5.87-.05,11.75-.05,17.62"/><path class="d" d="m751.22,118.64c-3.39,3.35-7.14,6.17-11.64,7.85-1.18.44-2.71,1.09-3.7.69-7.03-2.83-14.63-1.38-21.81-3.18-4.97-1.25-10.17-1.67-15.35-1.58-.87.02-1.71-.21-2.65.31-4.21,2.29-8.73.65-13.1.74"/><path class="d" d="m883.59,208.64c-6.13-.48-12.25-1.07-18.36-1.66-9.17-.89-18.26-1.02-27.38-.12-1.51.15-3.01.11-4.51.29"/><path class="d" d="m970.97,191.02c-.64,2.35-2.74,2.35-4.5,2.59-6.23.82-12.45,1.64-18.74,1.97-2.64.14-5.36.4-7.88,1.44"/><path class="d" d="m744.84,62.39c-4.42,7.43-6.32,15.72-8.25,24"/><path class="d" d="m656.72,461.77c-.52,1.97-1.12,3.92-1.14,6-.01,2.2.5,4.43,2.31,5.55,3.98,2.48,7.09,6.61,12.33,6.82"/><path class="d" d="m1152.09,131.39c-6.5-1.12-13-2.27-19.5-3.36-1.48-.25-3-.27-4.5-.39"/><path class="d" d="m437.34,303.14c-3.9,7.31-8.72,14.13-11.86,21.81-.57,1.4-1.47,1.14-2.05,1.36-7.58,2.88-15.22,2.37-22.84.09"/><path class="d" d="m300.47,209.02c5.62,0,11.25-.15,16.87.04,5.76.19,11.5.91,17.25.99,2.28.03,4.4,2.04,6.75.47"/><path class="d" d="m303.84,165.89c-1.36-3.77-5.15-4.96-7.96-7-4.42-3.21-9.41-5.62-14.16-8.37"/><path class="d" d="m510.47,298.27c-7.88,6.87-15.75,13.75-23.62,20.62"/><path class="d" d="m643.59,29.39c3.62,7.88,7.25,15.75,10.88,23.62"/><path class="d" d="m567.47,429.52c-3.2,1.64-5.53,4.2-7.5,7.13-1.9,2.84-5.24,3.87-7.63,6.25-3.8,3.78-5.69,8.58-8.5,12.87-1.71,2.61-2.56,5.96-6,7.13"/><path class="d" d="m652.98,292.28c.91-.37,1.11-1.11,1.54-1.86"/><path class="d" d="m608.72,276.52c7.18-2.13,13.48,1.1,19.85,3.44,2.8,1.03,3.75,4.21,5.62,6.34"/><path class="d" d="m385.59,276.14c-4.05,3.64-9.25,5.26-13.88,7.86-2.88,1.62-5.37,3.93-8.62,4.89"/><path class="d" d="m448.59,326.02c-6.43,5.03-16.59,5.37-22.5.75"/><path class="d" d="m1068.84,204.14c-4.78.01-9.51.28-14.27.98-3.51.51-7.31.05-10.83-.7-4.75-1-9.56-.13-14.28-.98-.44-.08-.99.46-1.49.71"/><path class="d" d="m1007.34,291.14c5.81,5.81,13.14,10.14,17.27,17.61.55.99,1.71.93,2.6.73,4.49-1.04,9.34-.47,13.51-2.97"/><path class="d" d="m622.59,154.27c-5.22-2.54-10.97-3.16-16.53-4.38-2.46-.54-5.22.28-7.46,1.77-5.01,3.34-10.74,4.23-16.51,4.83-4.98.52-10,.78-15,1.16"/><path class="d" d="m471.84,264.89c-4.96,1.06-9.27,3.71-13.87,5.63-.94.39-1.8.9-2.25,1.87-3.64,7.93-9.42,14.61-13.13,22.5"/><path class="d" d="m987.09,202.27c-.25,6.11,3.58,10.67,6.04,15.73,1,2.07,2.51,3.91,1.46,6.39"/><path class="d" d="m1098.84,201.89c-5.35.71-10.72,1.24-16.13,1.13-2.03-.04-4.07-.05-6,.75"/><path class="d" d="m677.34,275.39v18.75"/><path class="d" d="m340.22,306.89c6.4,5.39,13.57,8.91,22.12,9"/><path class="d" d="m585.09,211.27c1.32-.72,2.59-1,4.15-.44,1.26.45,2.77.6,4.09.39,7.46-1.17,12.94,1.74,16.86,7.94.84,1.32,1.76,2.08,3.39,2.29,1.91.25,3.76.94,5.63,1.44"/><path class="d" d="m774.09,125.77c-2.17-3.87-3.35-7.94-2.23-12.37.8-3.14.24-5.42-3-6.81-1.54-.66-2.91-1.73-3.79-3.32-1.8-3.23-4.58-3.47-7.87-2.68-2.57.61-5.24.8-7.86,1.17"/><path class="d" d="m601.59,270.89c-1.49.46-2.01,1.74-2.64,2.99-1.7,3.4-3.21,6.94-5.32,10.07-1.66,2.46-4.07,4.46-7.41,4.56"/><path class="d" d="m892.59,274.64c7,5.5,14,11,21,16.5"/><path class="d" d="m435.09,257.02c-5.06.11-10.16.45-14.96,1.99-2.7.87-4.98,3-7.55,4.36-3.95,2.1-7.99,4.03-11.99,6.03"/><path class="d" d="m622.59,110.77c.81.98,1.28,2.05,1.13,3.38-.6,5.58,3.14,8.68,8.61,7.11,1.52-.43,3-.99,4.5-1.49"/><path class="d" d="m216.84,81.52c-7.13,1.98-14.55.64-21.75,1.88"/><path class="d" d="m964.59,67.27c-.4-1.99-1.27-3.89-1.13-6,.16-2.41-2.18-2.42-2.89-1.76-2.12,1.98-4.97,2.1-7.33,3.46-3.6,2.07-7.88,2.97-11.9,4.3-7.68,2.55-15.28,5.31-22.5,9.01"/><path class="d" d="m435.09,275.39c-3.66-.27-6.58,1.16-8.6,4.14-4.41,6.5-9.48,12.46-14.65,18.36"/><path class="d" d="m671.72,381.52c-5.04,3.63-10.65,3.61-16.51,2.9-2.69-.32-5.49.24-8.24.49-3.77.34-7.46-.14-11.36,1.18-2.84.96-6.64-.96-10.02-1.56-2.81-.5-5.65-1.2-8.25.74"/><path class="d" d="m1276.59,32.02c-3.57,1.93-7.01-.23-10.5-.44-3.52-.21-7-.94-10.5-1.44"/><path class="d" d="m280.22,249.89c.14,3.63-1.44,7.09-.12,10.92"/><path class="d" d="m1021.59,197.02c-5.9-1.61-11.9-2.63-18-2.98-1.04-.06-2.19-.26-3,.73"/><path class="d" d="m397.97,63.7c-.15-2.42-1.15-4.6-3.4-5.37-8.82-3.03-17.71-5.86-26.61-8.67-2.86-.9-5.59-.5-7.87,1.66"/><path class="d" d="m625.59,216.52c-.62.75-1.18,1.57-1.89,2.24-4.65,4.39-5.31,7.27-2.59,13.12,1.61,3.46,2.41,7.23,4.39,10.56.56.94.5,2.33.19,3.73-.75,3.33,1.36,7.8,4.42,8.89"/><path class="d" d="m607.22,113.58c1.82-1.48,3.97-.83,6-.95,1.37-.07,1.69.93,1.85,1.89.45,2.64.58,5.12-.12,7.93-.71,2.87-.51,6.14.75,9.37,2.1,5.4,7.78,7.47,10.28,12.31.82,1.59,2.34,2.86,2.24,4.88"/><path class="d" d="m676.97,244.27c4.84,4.84,1.68,10.46,1.41,15.75-.08,1.59-.69,3.21-.66,4.88"/><path class="d" d="m768.09,92.58c-5,.47-10.12-.55-15,1.3-1.78.68-3.68,1.08-5.25,2.26"/><path class="d" d="m679.97,464.02c.35-2.12,1.41-3.81,2.99-5.27,1.31-1.21,2.83-2.35,3.35-4.12.6-2,1.7-1.84,3.43-1.57,2.25.35,4.35-.2,6.43-1.69,3.27-2.34,7.52-1.88,11.17-1.71,2.9.14,6.03.54,9.04,1.11,5.83,1.1,10.66,3.93,15.35,7.25"/><path class="d" d="m598.97,150.89c-.82-1.27-.98-2.75-.71-4.12.72-3.65-1.31-5.89-3.81-7.86-2.2-1.73-4.61-2.68-7.5-1.57-.76.29-1.82.28-2.59,0-3.04-1.07-6.01-.79-9.01.04"/><path class="d" d="m1099.97,108.14c1.09,2.41,3.16,3.78,5.22,5.29,4.36,3.2,8.34,6.87,12.04,10.83,2.58,2.76,5.82,3.28,9.37,2.63"/><path class="d" d="m575.34,137.39c-3.58-3-10.29-10.18-12.51-14.56-2.16-4.29-6.93-5.74-11.13-7.55-.57-.25-1.34-.1-1.85-.42-5.68-3.49-11.94-2.12-18.02-2.23"/><path class="d" d="m580.59,246.52c-1.46,1.55-4.31,1.71-4.23,4.88.04,1.52-.57,2.66,1.15,3.86,1.17.81,2.13,3.01,1.48,4.34-2.8,5.75-3.51,12.1-5.57,18.03-1.32,3.81-.24,7.9-1.79,11.66-.51,1.23.88,2.18,1.09,3.36"/><path class="d" d="m676.22,323.02c-2.25,3.62-4.38,7.33-6.78,10.85-2.57,3.76-2.28,7.45-.35,11.28.43.85.76,1.75,1.13,2.62"/><path class="d" d="m452.34,81.52c-3.04-6.84-10.77-9.41-18-6"/><path class="d" d="m219.09,148.64c-3.63-.25-6.47,2.09-9.74,3.05-3.56,1.05-7.01,2.45-10.51,3.7"/><path class="d" d="m753.09,286.27c5.34,4.38,11.07,4.72,17.27,1.92,3.27-1.48,6.72-2.58,10.11-3.78,3.8-1.34,6.15-5.79,4.87-9.39-1.43-4.04-4.96-5.11-9.4-4.24-8.15,1.61-16.18,4.54-24.73,3.11"/><path class="d" d="m449.34,325.64c5.31,3.64,11.4,4.71,17.63,5.2,1.1.09,2.25-.45,3.37-.7"/><path class="d" d="m663.47,75.14c1.12,6.59.68,13.24.75,19.88"/><path class="d" d="m711.47,157.27c.38.63,1.11,1.27,1.07,1.87-.41,6.21,2.06,11.97,2.68,18"/><path class="d" d="m620.72,72.52c-4.82-.33-5.56,3.74-7.08,6.77-1.96,3.88-1.98,8.1-1.6,12.36.11,1.27.81,1.88,1.55,2.62,1.26,1.24,2.5,2.5,3.75,3.75"/><path class="d" d="m1012.59,46.27c-4.78-2.98-9.21-.13-13.45,1.26-5.26,1.73-10.42,3.75-15.81,5.06-.92.22-1.46.85-2.24,1.18"/><path class="d" d="m288.09,123.14c-6.27,4.94-12.23,10.23-17.62,16.12"/><path class="d" d="m581.72,198.52c2.88,2.02,5.33,4.45,9.37,4.65,3.82.19,5.13,3.82,6.38,6.98"/><path class="d" d="m633.09,209.02c-5.24.69-10.37,2.25-15.75,1.91-1.31-.08-2.59-.08-3.75-.78"/><path class="d" d="m135.47,12.14c.11,2.22-1.6,1.38-2.63,1.48-5.78.56-11.49-.88-17.25-.69-5.46.18-11.19-1.58-16.21,2.48-1.32,1.07-3.71,1.31-5.53,1.14-5.39-.51-10.49,1.26-15.76,1.63-2,.14-4.12-.44-6,.71"/><path class="d" d="m682.97,105.52c4.48.84,8.94,2.47,13.5.38"/><path class="d" d="m1333.59,27.14c4.25.62,8.65.77,12.7,2.04,2.77.87,5.63.74,8.3,1.71"/><path class="d" d="m154.59,42.14c.04-.88-.61-.86-1.12-.73-5.18,1.29-10.89-1.32-15.79,2.18-.35.25-1.21-.2-1.84-.33"/><path class="d" d="m943.59,200.02c-.96.45-2.17.87-2.96.32-3.74-2.58-7.54-1.38-11.27-.26-1.91.57-3.37.12-4.89-.81"/><path class="d" d="m582.09,285.14c-3.75,1.93-4.33,7.3-8.98,8.34-.28.06-.58,1.53-.34,2.14,1.14,2.94.11,6.09,1.07,9.02"/><path class="d" d="m543.47,216.52c-6.38,2.12-12.75,4.25-19.12,6.38"/><path class="d" d="m948.47,324.52c-5.74,4.08-12.22,5.42-19.12,5.25"/><path class="d" d="m798.47,343.27c-4.35-2.22-8.86-2.39-13.5-1.12"/><path class="d" d="m92.34,53.02c-6.25,2.87-12.5,5.75-18.75,8.62"/><path class="d" d="m961.22,301.27c3.22,5.19,6.21,10.53,8.52,16.17.84,2.05,1.83,2.53,3.82,3.07,5.84,1.6,11.53.09,17.28-.11"/><path class="d" d="m622.22,166.64c-1.63,0-3.31.28-4.86-.05-5.78-1.24-10.24,2.12-14.97,4.26-2.91,1.32-3.54,9.56-.72,11.03,4.74,2.49,3.61,6.86,4.39,10.64.25,1.2.04,2.49.04,3.74"/><path class="d" d="m1383.09,36.89c1.45,4.53,1.08,8.69-2.23,12.39-1.83,2.05-27.52,17.36-29.27,19.49"/><path class="d" d="m1029.09,259.64c-6.21-1.54-12.39-3.25-18.75-4.12"/><path class="d" d="m1207.59,8.77c-.12-3.89-1.79-5.31-5.62-4.48-6.43,1.4-13.04,1.39-19.48,2.37-10.37,1.57-21.09.62-31.16,4.32-.63.23-1.85.44-1.49-1.09"/><path class="d" d="m813.09,287.39c.79,5.43,4.61,8.8,8.2,12.43,1.79,1.81,3.55.44,5.3.7"/><path class="d" d="m766.44,438.97c-13.4,4.09-15.72,28.12-21,29.02-2.31.26-4.35.11-4.53-2.99-.05-.89-.47-1.75-.72-2.63"/><path class="d" d="m640.59,179.77c1.91-1.01,4.42-1.38,4.15-4.5-.38-4.28-.55-4.25-4.91-3.46-2.54.46-5.24.04-7.86.1-1.63.04-3.25.23-4.88.36"/><path class="d" d="m1224.84,47.39c-1.7-5.11-7.1-6.63-10.24-10.41-1.2-1.44-3.64-1.84-5.51-2.72"/><path class="d" d="m795.09,213.89c-1.64.2-3.2-.16-4.48-1.15-2.5-1.93-4.27-1.63-6.07,1.11-2.39,3.64-5.39,6.82-8.94,9.41"/><path class="d" d="m198.09,60.52c-7.78.34-15.53-.12-23.26-1.08-1.16-.15-2.57-.11-2.89-1.2-.28-.97-1.93-1.82-.78-2.89.41-.38,1.75,0,2.53.34,1.14.49,2.26.27,3.39.33"/><path class="d" d="m1021.97,311.77c-7.04,3.71-14.25,6.7-22.5,5.27-.34-.06-.75.23-1.12.35"/><path class="d" d="m817.97,151.27c.04,6.05-.39,12.05-1.5,18"/><path class="d" d="m761.34,316.27c-3.39,7.63-13.45,11.92-21.77,9.84-5-1.25-10.23-1.59-15.35-2.34"/><path class="d" d="m747.84,103.64c-6.04,1.8-10.44,6.35-15.72,9.42-.76.44-1.52.6-2.28.89"/><path class="d" d="m827.34,410.39c1.08,0,1.72.15,2.35,1.45,1.6,3.26,2.99,6.4,2.55,10.18-.56,4.85,2.93,8.1,5.34,11.54,2.46,3.51,5.36,7.35,9.01,9.21,4.95,2.53,7.42,6.81,10.25,10.84,2.06,2.94,3.48,6.34,6.12,8.91"/><path class="d" d="m787.41,291.89c-2.69,4.5-5.46,8.95-8.02,13.52-.94,1.68-1.87,3.03-3.77,3.78-1.75.69-3.44,1.91-4.06,3.73-.43,1.26-1.71,1.74-1.97,2.97"/><path class="d" d="m669.84,77.77v17.62"/><path class="d" d="m819.84,182.02c-3.15,2.65-7.24,2.51-10.91,3.21-3.34.64-6.43,1.59-9.32,3.2-1.92,1.07-3.85,1.64-6.02,1.46"/><path class="d" d="m1332.09,52.64c6.38,4.09,10.68,10.12,15,16.12"/><path class="d" d="m70.59,19.27c-8.12,1.75-16.23,3.6-24.38,5.21-3.82.75-7.79.82-11.61,1.59-6.68,1.35-12.41,4.87-18.01,8.58"/><path class="d" d="m226.97,88.27c4.61,5.03,7.04,11.12,8.62,17.62"/><path class="d" d="m576.47,409.64c.98,7.62.48,14.72-6.73,19.53-.07.05.11.47.17.72"/><path class="d" d="m192.09,175.64c3.94,2.57,8.81,3.02,12.76,5.61,1.45.95,2.99,1.76,4.49,2.64"/><path class="d" d="m223.59,107.39c-5.68,1.27-11.44,1.96-17.25,2.25"/><path class="d" d="m1067.34,267.89c-5.75-1.25-11.5-2.5-17.25-3.75"/><path class="d" d="m685.97,42.52c-5.75,1.3-10.24,4.16-11.97,10.13-.79,2.74-3.12,2.68-4.9,2.51-4.36-.42-8.22,1.55-12.37,2.09-3.55.47-3.7,1.3-3.39,6.64"/><path class="d" d="m75.47,101.77c4.32,5.49,9.49,9.89,16.12,12.38"/><path class="d" d="m736.59,415.27c-2.75,4.17-7.77,3.99-11.69,5.87-1.43.69-3.14,1.27-4.81,1.63"/><path class="d" d="m522.47,128.02c-3.19,3.68-2.6,8.09-2.17,12.37.15,1.51.18,3.01.29,4.51"/><path class="d" d="m847.22,444.14c-1.43,2.56,1.22,3.95,2.06,5.52,1.96,3.65,3.9,7.52,7.31,10.23"/><path class="d" d="m106.97,120.14c3.46,5.95,8.7,9.92,14.62,13.12"/><path class="d" d="m722.72,476.02c3.55,4.53,3.81,7.06-.08,11.56-3.49,4.04-5.47,8.95-8.56,13.18-1.84,2.51-3.5,5.47-7.49,4.13"/><path class="d" d="m926.34,216.14c-5.59-.52-10.83-2.96-16.5-3"/><path class="d" d="m652.97,58.27c-3.35-2.53-6.68-.66-9.7.5-2.38.92-5.18,1.58-6.8,4"/><path class="d" d="m704.34,473.02c-6.04-3.24-11.44-1.76-16.5,2.25"/><path class="d" d="m836.34,152.39c-.05,4.35-3.31,6.18-8.63,4.88-2.85-.7-5.5-.34-7.87,1.5"/><path class="d" d="m788.72,316.64c2.76,6.19,1.82,8.51-2.85,14.37-2.73,3.42-6.78,6.4-6.9,11.51"/><path class="d" d="m532.59,123.52c4.81.57,9.53,1.95,13.4,4.64,3.88,2.69,7.68,2.29,11.72,1.71,2.52-.36,5-.97,7.5-1.47"/><path class="d" d="m766.59,228.89c.75,3.25,1.34,6.55,2.32,9.73.42,1.37.2,2.31-.44,3.4-2.72,4.63-5.58,9.16-7.61,14.2-1.05,2.59-4.4,3.22-6.3,5.27-.59.64-1.48,1.02-2.23,1.52"/><path class="d" d="m1185.09,141.14c5.37,2.12,10.75,4.25,16.12,6.38"/><path class="d" d="m712.59,41.77c2.24-1.44,4.14-1.39,5.64,1.12,1.59,2.67,3.92,3.63,7.1,3.87,4.92.37,6.79,3,6.76,8.13"/><path class="d" d="m945.84,279.14c3.87,5.37,7.75,10.75,11.62,16.12"/><path class="d" d="m153.84,62.39c-4.7.52-8.95,2.67-13.48,3.85-.92.24-1.52,0-2.27-.1"/><path class="d" d="m541.59,200.77c11.25.63,22.5,1.21,33.75,1.91,2.26.14,4.57.5,6.73,1.17,1.4.44,2.18.06,3.02-.83"/><path class="d" d="m709.22,495.52c-.64-.78-1.56-.09-2.24-.4-1.69-.76-3.28-1.79-5.26-1.48.75,1.62,1.69,3.19,2.21,4.89.92,3.03,3.95,5.86,1.17,9.36"/><path class="d" d="m844.59,185.39c-4.49,5.71-10.67,7.71-17.63,7.85-2.12.04-4.24-.01-6.39-.22-4.68-.44-9.52-.35-13.44,2.92-.8.67-1.52.79-2.29.66-3.39-.57-5.79,1.04-7.88,3.41"/><path class="d" d="m241.59,199.64c4.78,3.19,10.28,4.36,15.75,5.62"/><path class="d" d="m546.84,448.64c-5.13,1.94-8.3,6.18-9.49,10.94-1.01,4.04.99,8.27,4.99,10.81"/><path class="d" d="m201.84,18.89c-4.17-1.89-8.68-2.2-13.13-2.56-3.27-.26-6.51-.67-9.75-1.12-1.97-.28-4.14-.73-5.99.68"/><path class="d" d="m685.97,348.89c-1.96,5.48-2.53,11.1-1.9,16.88.08.75.06,1.45.78,1.87,2.44,1.44,1.83,3.82,1.87,6"/><path class="d" d="m842.34,114.14c1.18.68,2.78.29,3.75,1.5-1.12.75-2.28,1.46-3.37,2.26-1.02.74-2.18,1.54-3.35,1.05-1.23-.52-1.7.25-2.26.83-4.39,4.52-10.89,5.31-15.8,8.94-1.87,1.38-4.27,1.93-5.64,4.14-1.13,1.83-3.42,1.9-5.19,1.79-2.39-.15-3.46,1.07-4.51,2.73-2.09,3.29-4.14,6.59-4.87,10.5"/><path class="d" d="m252.47,108.52c-5.12-.93-10.15-2.35-15.38-2.62"/><path class="d" d="m1026.09,197.77c3.78.89,7.33,2.55,11.24,3.1,1.27.18,3.16.49,3.39,2.53"/><path class="d" d="m662.72,319.64c5,1.79,10,.64,15,0,.12-.02.27-.05.37,0,.45.23.5.49.19.74"/><path class="d" d="m766.59,398.39c.25,5.12.5,10.25.75,15.38"/><path class="d" d="m991.59,301.64c2.95,4.89,7.22,9.05,8.25,15"/><path class="d" d="m869.34,219.14c5.15,1,10.12,2.6,15,4.5"/><path class="d" d="m749.72,284.77c-2,2.37-4.01,4.74-6,7.13-2.68,3.21-6.7,2.67-10.15,3.25-5.54.93-6.69,1.67-7.89,7.24-.55,2.54-1.47,5.01-2.22,7.51"/><path class="d" d="m598.97,230.02c.62,1.5,1.86,3.05,1.75,4.49-.25,3.32,2.35,5.06,3.34,7.57,1.41,3.6,4.38,2,6.53,2.94"/><path class="d" d="m800.34,312.89c-.6,1.25-.51,2.47-.01,3.76,3.05,7.84,4.3,15.99,4.13,24.37-.04,2.15,1.42,4.47-.75,6.38"/><path class="d" d="m720.09,46.27c-3.35,4.38-7.37,7.6-13.11,8.33-1.64.21-3.28,1.15-2.33,3.69.7,1.86,3.77,3.92,3.82,5.97.06,2.4-5.72,7.87-7.88,8.6-1.83.62-3.74,1.02-5.62,1.52"/><path class="d" d="m713.72,141.52c-5.02,4.86-11.57,5.84-18,7.12"/><path class="d" d="m792.09,114.89c.1,2.71-1.8,4.08-3.77,5.22-4.24,2.46-7.93,5.97-13.49,5.86-1.47-.03-3.1,2.45-4.47,3.94-1.26,1.37-2.43,2.89-3.34,4.51-.43.77-.79,1.64-1.58,1.8-4.1.83-6.43,4.54-10.1,6.07-2.42,1.01-2.37,2.91-1.12,4.83,1.81,2.79,3.73,5.51,5.61,8.26"/><path class="d" d="m627.09,182.39c-7.19,1.35-14.63.25-21.75,2.25"/><path class="d" d="m718.78,412.64c2.36-.9,4.8.52,7.41-.95,2.95-1.67,6.25-1.95,10.12-.39,7.06,2.85,13.52,6.53,19.79,10.72"/><path class="d" d="m687.47,142.64c4.32-7.67,11.42-10.22,19.14-7.16,7.67,3.05,13.15,8.41,17.24,15.41,1.27,2.18,3.1,3.88,4.87,5.63"/><path class="d" d="m170.34,41.39c-4.75,1.26-9.5-.12-14.25,0"/><path class="d" d="m832.22,247.64c2.96,3.99,7.8,5.63,11.25,9,.63.62,1.25,1.25,1.88,1.87"/><path class="d" d="m777.47,126.52c1.23,2.01,1.67,4.51,3.74,6.01.82.59.51,1.6.33,2.23-.82,2.76-1.01,5.78-2.63,8.23-.97,1.47-.92,2.96-1.12,4.53-.35,2.7.54,4.46,3.02,5.67,1.86.9,3.52,2.21,5.27,3.33"/><path class="d" d="m401.34,210.89c1.78,5.82-3.1,9.3-4.88,13.88"/><path class="d" d="m739.22,138.52c-1.06,4.66-.05,9.26.38,13.88"/><path class="d" d="m701.34,41.77c-3.25-1.21-6.49-1.45-9.75-.01-.72.32-1.48.59-2.25.74-2.08.42-4.26.88-3.02-2.62.16-.44.02-.99.02-1.49"/><path class="d" d="m670.22,161.02c-4.55,1.21-9.17,1.76-13.88,1.5"/><path class="d" d="m1102.59,234.89c5.03,2.12,9.76,4.58,11.25,10.5"/><path class="d" d="m266.34,138.52c-12.55.14-24.78,2.4-36.7,6.15-1.26.4-2.72.02-3.8.97"/><path class="d" d="m650.72,148.64c.38,1.38.47,2.91,1.17,4.1,3.56,6.06,4.75,12.83,6.44,19.5"/><path class="d" d="m636.47,104.77c-4.62,1.44-9.53,1.47-13.72,4.99-1.81,1.52-5.38,1.97-8.03,3.26"/><path class="d" d="m943.59,198.89c-.21,1.54.8,1.43,1.87,1.52,6.99.6,14.02-.01,21,.43,7.63.48,15.25.53,22.88.67,1.96.04,3.83-.22,5.64-1.1,3-1.46,6.09-1.47,9.38-.83,6.21,1.2,12.49,2.03,18.74,3.08,1.98.33,3.8,1.04,5.27,2.59,1.9,2,4.85,1.74,7.1,3.03,1.32.76,3.52.3,3.76,2.61"/><path class="d" d="m598.59,107.39c.93,2.63-.04,4.38-2.2,6.06-2.64,2.05-5.79,4.02-5.3,8.19"/><path class="d" d="m774.47,241.27c3.1.56,5.11,2.26,6.43,5.23,2.63,5.88,7.03,10.81,9.31,16.9.55,1.48,1.01,3,1.51,4.5"/><path class="d" d="m981.09,236.39c2.56,4.35,5.75,8.37,6.75,13.5"/><path class="d" d="m835.22,320.77c3.84,4.06,8.48,7.11,13.12,10.12"/><path class="d" d="m541.59,135.14c.17,2.21,1.45,3.39,3.32,4.58,3.79,2.4,7.22,5.34,9.05,9.67"/><path class="d" d="m364.59,206.39c-3.38.63-6.73,1.38-10.13,1.81-1.45.19-2.27.87-2.99,1.94"/><path class="d" d="m852.09,118.27c-2.81,4.86-7.19,7.64-12.37,9.38-1.01.34-2.57.47-2.91,1.17-1.66,3.42-5.06,3.67-7.97,4.83"/><path class="d" d="m1254.47,130.27c-3.35-4.07-7.41-7.16-12.38-9"/><path class="d" d="m729.47,462.52c.92,4.35,2.15,8.64,2.25,13.12"/><path class="d" d="m790.22,233.02c-2,.84-2.09,3.03-2.88,4.56-1.62,3.14-3.83,5.43-6.87,7.06"/><path class="d" d="m606.84,227.02c3.12,3.75,7.02,7.04,7.47,12.38.06.73-.22,1.5-.35,2.25"/><path class="d" d="m586.59,330.89c2.14.34,1.25,2.14,1.04,2.98-1.38,5.56-1.27,11.29-2.17,16.9-.84,5.26-1.74,10.5-2.62,15.75-.5,2.98.33,5.98-.58,9.05-.52,1.73-1.59,3.33-1.66,5.2"/><path class="d" d="m969.84,318.89c-4.87,4.51-10.9,5.9-17.25,6.35-1.75.12-2.98-.65-4.21-2.15-2.11-2.58-5.09-4.4-7.04-7.2"/><path class="d" d="m641.72,332.39c-.34.75-1.46.79-1.52,1.87-.23,4.36-3.1,6.63-6.73,8.25"/><path class="d" d="m750.84,72.89c.57,1.95.4,4.19,2.25,5.63.71.56,1.1,1.72,2.25,1.48,4.52-.92,7.09,3.18,10.86,4.21.39.11.52,1.18.77,1.81"/><path class="d" d="m731.34,144.89v12.75"/><path class="d" d="m798.47,371.77c4.26,3.98,4.28,8.57,2.78,13.92-.95,3.37-1.28,6.92-2.97,10.08-1.88,3.52-3.36,3.94-7.32,3.44-5.74-.72-8.94-3.57-9.41-9.44-.11-1.4-.71-2.75-1.09-4.13"/><path class="d" d="m673.22,380.02c2.4-.19,4.7.06,6.75,1.49,3.36,2.34,7.26.81,10.89,1.42,6.82,1.14,13.73.42,20.61.1,2.52-.12,4.87-.69,7.14-1.86,2.93-1.51,6.26-.86,9.38-1.42,1.61-.29,2.91-.75,3.7-2,1.93-3.07,4.37-2.42,7.17-1.52,5.2,1.66,10.45,3.22,15.76,4.45,1.73.4,3.69.06,5.64-.54,3.82-1.17,8-.94,10.73,2.23,2.55,2.95,6,1.49,8.74,2.88.64.32,1.09-.28,1.49-.73,1.88-2.12,4.45-3.96,5.48-6.44,1.94-4.68,5.67-5.9,9.9-6.67,3.34-.61,5.09-2.19,4.8-5.64-.4-4.65-.35-9.26.08-13.88.12-1.33.02-2.64-.76-3.74-2.36-3.32-1.39-6.79-.25-10.1.39-1.12.88-1.69-.09-2.69-1.58-1.64-2.05.42-3.02.77"/><path class="d" d="m704.72,213.14c-.38.87-1.08,1.75-1.07,2.62.1,7.04-3.76,12.21-7.93,17.25"/><path class="d" d="m1149.47,11.2c-5.38.76-10.66,2.18-16.12,2.49-2.03.12-3.18,1.95-4.5,3.32"/><path class="d" d="m155.72,90.52c-2.42,2.65-6.07,2.31-9.02,3.71-3.79,1.8-7.73,3.29-11.61,4.92"/><path class="d" d="m797.34,309.89c-6.82,1.31-13.64,2.7-19.49,6.77-2.14,1.49-3.3-.6-4.89-1.14"/><path class="d" d="m600.84,325.64c5.34,3.1,10.52,6.58,13.02,12.42,1.9,4.43,4.7,7.68,8.72,10.09,1.45.87,2.81,1.07,4.13-.2"/><path class="d" d="m382.59,235.64c2.87-.75,5.85-1.24,8.6-2.32,3.18-1.26,6.26-.69,9.4-.3,4.56.57,9.15,1,13.5,2.62"/><path class="d" d="m825.47,173.02c-1.84,3.94-.66,8.34-1.88,12.38"/><path class="d" d="m667.97,343.64h-12.38"/><path class="d" d="m373.59,319.64c3.45,3.08,7.6,3.68,12,3.38"/><path class="d" d="m310.22,44.77c-.53,1.11-1.77,1.38-2.63,1.42-3.74.18-7.5.08-11.25.08"/><path class="d" d="m679.22,377.77c2.9-2.99,6.25-3.75,10.51-3.59,4.31.16,9.02.88,13.11-1.67.98-.61,1.92-1.25,3-.35,2.96,2.46,6.75,3.05,10.18,4.37,1.94.75,2.65,2.15,3.7,3.5"/><path class="d" d="m620.34,416.58c3.64,4.08,9.16,6.11,12.03,11.05.43.74,1.17,1.33,1.86,1.88,2.6,2.07,3.87,4.33,2.72,7.92-.9,2.83-.86,5.97-1.23,8.97"/><path class="d" d="m811.22,213.7c1.69.57.45,1.73.31,2.43-.97,4.79.15,7.59,3.81,9.01"/><path class="d" d="m604.59,289.64c2.38.41,3.77,1.57,4.62,4.08.99,2.92,4.68,3.83,6.2,6.45,1.82,3.16,3.79,4.42,7.61,3.11,2.33-.8,5.23.34,7.48-1.61.32-.27,1.29-.38,1.43-.18,2.44,3.43,7.37.45,9.83,3.88.74,1.04,1.69,2.35,3.34,1.15"/><path class="d" d="m1177.59,138.14l-12-3"/><path class="d" d="m299.53,30.89c1.02,4.68,5.1,6.51,8.45,8.98,2.19,1.62,5.3,2.12,6.18,5.27"/><path class="d" d="m802.59,279.14c0,.12-.05.3,0,.37,9.04,9.09,5.58,8.32,17.24,5.27,1.23-.32,2.5-.51,3.75-.76"/><path class="d" d="m585.47,159.52c2.96,6.77,9.44,9.04,15.38,12"/><path class="d" d="m624.47,416.02c2.02-1.44,4.27-2.15,6.75-1.86,3.19.37,6.12-2.21,9.37-.76,2.89,1.29,5.89,2.13,8.99,1.09,3.5-1.18,6.51.79,9.76,1.16"/><path class="d" d="m1.59,55.64c-1.7,4.67.54,8.37,3,12"/><path class="d" d="m677.72,72.89c.08,4-.25,8.02.38,12"/><path class="d" d="m808.59,240.14c.4,1.97.45,4.06,3.37,4.22.99.05,1.93,1.03,1.94,2.53,0,1.46.98,2.33,2.57,2.25"/><path class="d" d="m807.47,199.27c-2.28,3.35-6.42,2.07-9.38,3.75-.3-1.02-3.28.19-1.88-2.25"/><path class="d" d="m837.84,108.89c0-.12.03-.35,0-.36-3.01-.91-11.1,3.13-11.98,5.99-.02.08.23.24.36.37"/><path class="d" d="m901.59,210.89c-4.07.07-7.9-1.8-12-1.5"/><path class="d" d="m212.34,186.14c3.65,1.9,7.24,3.8,11.63,3.42,4.36-.38,6.92,3.14,10.1,5.24,1.93,1.28,3.58,3.01,6.02,3.34"/><path class="d" d="m642.47,319.64c-.8,2.78.75,4.17,2.99,5.26,3.82,1.85,6.95,5.77,12.03,3.8.64-.25,1.04.85,1.52,1.4,1.76,1.98,3.71,3.79,5.58,5.66"/><path class="d" d="m1157.72,83.02c-3.26,3.58-6.24,7.35-7.88,12"/><path class="d" d="m444.84,252.89c-4.01,1.46-7.7,3.41-10.5,6.75"/><path class="d" d="m12.84,37.64c-1.94,2.3-4.08,4.51-4.84,7.51-.89,3.49-3.14,5.93-5.66,8.24"/><path class="d" d="m568.22,167.02c7.04,6.74,15.24,12.01,22.88,17.99,2.19,1.71,5.62.78,8.62-2.24"/><path class="d" d="m252.09,26.95c1.05-1.76.39-3.28-1.88-3.52-6.81-.72-13.73-2.51-19.91,2.53-2.32,1.89-5.57,1.03-8.2.99-7.08-.11-14.08-1.92-21.05-2.77-5.61-.68-11.38-2.23-17.2-1.55-1.24.15-2.5-.89-3.75,0"/><path class="d" d="m708.47,50.77c3.9-1.08,4.63-3.37,2.69-6.78-1.7-3-4.46-3.15-7.19-3.27-2.24-.1-3.27,1.69-3.27,3.68,0,.75.5,1.5-.1,2.25"/><path class="d" d="m633.84,65.77c-4.09-1.95-9.5.67-11.62,5.62"/><path class="d" d="m432.84,204.52c-1.58-1.17-3.23-1.27-5.25-1.27-4.74,0-9.54,1.52-14.25-.23"/><path class="d" d="m1129.22,18.52c2.5,2.19,5.55,2,8.2.99,2.3-.87,4.65-.04,6.8-.99.12.38.25.75.38,1.12"/><path class="d" d="m617.72,413.77c-2.61-4.66-6.91-3.23-10.88-3"/><path class="d" d="m551.72,131.77c.45,2.48,1.35,4.53,4.12,5.28,2.23.61,3.14,2.62,4.13,4.47"/><path class="d" d="m613.97,339.89c-3.75-.07-7.53,1.91-11.25-.19"/><path class="d" d="m789.47,117.14c-3.4-2.57-6.78-5.16-9.75-8.25"/><path class="d" d="m1092.09,275.39c-3,.61-4,3.51-5.94,5.32-1.28,1.19-2.31,2.69-3.81,3.68"/><path class="d" d="m1357.59,31.64c4.25.5,8.5,1,12.75,1.5"/><path class="d" d="m684.47,210.14c1.41,3.66,2.52,7.4,4.34,10.96,1.68,3.29.01,7.17-.22,10.79"/><path class="d" d="m725.72,350.39c.12,3.75.25,7.5.38,11.25"/><path class="d" d="m695.72,354.14c-1.25,3.68-2.36,7.38-.75,11.25"/><path class="d" d="m387.09,206.02c-1.46-1.74-3.63-1.5-5.21-1.01-3.36,1.04-6.91.01-10.16,1.39"/><path class="d" d="m979.59,55.64c-2-1.42-4.09-.26-5.98.1-3.36.65-6.73,1.54-9.77,3.27"/><path class="d" d="m167.34,57.52c-3.18,2.56-7.28,2.68-10.88,4.12"/><path class="d" d="m744.09,398.39c-1.1,3.54.06,7.48-1.88,10.88"/><path class="d" d="m598.97,123.52c.96,1.79,2.63,2.86,4.12,4.13,1.98,1.69,4.08,2.03,6.38.74"/><path class="d" d="m519.84,198.52c1.59,1.49,3.65,2.47,5.63,2.51,3.75.07,5.65-2.14,6.39-6.26.27-1.52.73-3,1.11-4.5"/><path class="d" d="m579.84,381.14c2.9,1.04,1.45,3.22,1.06,4.86-.54,2.25-.46,4.64-.92,6.71-.98,4.39-.97,8.81-1.7,13.17-.26,1.58-1.66,2.73-2.94,3.76"/><path class="d" d="m556.22,152.77c-3.22-.86-6.5-.17-9.75-.36-1.09-.06-1.91-.14-1.12-1.52"/><path class="d" d="m667.22,350.77c-3.62-.4-7.17-1.51-10.88-1.12"/><path class="d" d="m598.97,211.64c-.27,2.68-1.53,4.84-3.36,6.77-.98,1.03-1.15,1.72.22,3.12,1.49,1.53,1.89,4.11,2.76,6.24"/><path class="d" d="m625.22,248.77c-3.71-1.48-7.66-2.53-10.5-5.62"/><path class="d" d="m372.09,213.14c-2.19-1.55-4.73-1.24-7.12-1.07-3.81.28-7.63.06-11.22-.92-3.43-.94-6.77-.58-10.16-.64"/><path class="d" d="m188.34,173.39c-2.75-2.12-5.56-4.18-8.2-6.43-.62-.53-1.08-.06-1.55-.32"/><path class="d" d="m1299.47,74.02c3.61,2.87,7.38,5.57,10.12,9.38"/><path class="d" d="m643.22,167.77c-3.64-1.7-7.02.26-10.5.75"/><path class="d" d="m684.47,131.39v10.5"/><path class="d" d="m1047.84,263.39c-3.52-.52-6.82-2.27-10.5-1.88"/><path class="d" d="m659.34,420.89c0-6.22-.1-5.88,5.65-4.22,5.49,1.58,11.29,2.1,16.83,3.53,8.09,2.09,16.27.53,24.39,1.04,1.55.1,3.43-3.47,2.92-5.96-.24-1.16-.15-2.27-.3-3.39"/><path class="d" d="m670.22,55.64c-.31,3.19.41,6.51-1.81,9.43-.73.96-1.39,1.06-2.32,1.07"/><path class="d" d="m578.34,300.14c.54,0,1.26-.11,1.09.74-.12.6-.21,1.22-1.08,1.54-5.88,2.19-7.18,7.96-9.76,12.71"/><path class="d" d="m432.84,261.14c-3.59,2.37-7.1,4.83-9.38,8.62"/><path class="d" d="m679.22,323.39c.01,3.38,2.42,6.67.38,10.12"/><path class="d" d="m633.84,149.02c.47,3.53,1.65,6.85,3,10.12"/><path class="d" d="m299.91,33.89c-1.79.44-3.47.76-5.45.49-5.17-.68-10.41-1.02-15.34-2.79-3.44-1.23-7.57-.31-10.38-2.04-4.04-2.49-8.42-1.91-12.52-3.12-.8-.24-1.74-.03-2.61-.03"/><path class="d" d="m656.72,308.02c.62-.25,1.35-.85,1.86-.7,7.23,2.16,14.73,3.73,20.64,8.95"/><path class="d" d="m790.97,105.52c-2.58-4.42-3.1-4.46-7.14-1.15-1.25,1.03-2.73,1.77-4.11,2.65"/><path class="d" d="m769.22,358.64c-.66,3.23-.27,6.5-.38,9.75"/><path class="d" d="m751.22,380.77c-1.46,2.41-3.19,4.07-6.4,3.07-.99-.31-2.41-.14-3.32.37-3.12,1.73-5.25.48-7.16-1.93"/><path class="d" d="m763.59,396.14c-.42,3.34-.17,6.61,1.12,9.75"/><path class="d" d="m825.09,113.77c-3.67,2.75-8.37,3.38-12.07,6.29-4.46,3.5-9.56,6.16-14.14,9.51-4.66,3.4-8.99,7.25-13.56,10.79-1.41,1.09-3.15,1.2-4.85.41"/><path class="d" d="m599.34,176.39c-3.31,1.4-6.48-.8-9.75-.38"/><path class="d" d="m720.84,140.02c1.67-2.61,3.99-3.79,7.13-3.39,3.63.47,7.4-.74,10.95,1.38,1,.59,2.96-.72,4.41-.55,2.88.34,5.44,1.76,7.88,3.3"/><path class="d" d="m607.97,111.52c-.87,1.25-3.74,5.44-4.48,6.76-2.34,4.18-7.86,5.24-12.4,3.36"/><path class="d" d="m1284.09,108.89c-1.91-3.84-5.55-5.95-8.62-8.62"/><path class="d" d="m1013.34,274.64c-3.24-1.26-6.29-3.03-9.75-3.75"/><path class="d" d="m319.97,41.02c.34-2.15-2.33-4.08-.43-6.42.3-.37-.39-1.05-1.07-1.08-4.76-.17-9.08-2.61-13.87-2.67-1.34-.02-2.35.49-3.38,1.16"/><path class="d" d="m659.72,462.14c.17,3.25-.39,6.52.38,9.75"/><path class="d" d="m1107.09,262.64c-2.94,2.81-5.46,6.09-9,8.25"/><path class="d" d="m977.34,256.27c2.1,3.39,5.65,4.75,9,6.38"/><path class="d" d="m1113.84,249.89c-.99,3.49-2.65,6.66-4.5,9.75"/><path class="d" d="m817.59,249.89c.15,1.63,2.17,1.9,2.5,3.04.35,1.21,2.2,1.72,1.44,3.34-2.6,5.56.72,10.36,2.12,15.35.79,2.81,2.09,5.41.32,8.28-1.02,1.66.04,3.27.38,4.86,1.1,5.09,2.69,9.97,2.96,15.36.18,3.57,2.11,7.46,2.98,11.28.62,2.69.86,5.46,3.04,7.49"/><path class="d" d="m1298.72,73.27c-3-1.97-5.9-4.12-9.38-5.25"/><path class="d" d="m666.84,294.52c-4.67,2.27-8.88,1.97-12.38-2.25"/><path class="d" d="m794.72,388.27c-1.88,1.79-3.74-.15-5.63-.06-1.23.06-2.5-.44-3.75-.69"/><path class="d" d="m709.59,226.64c0,6.71-1.51,8.36-7.48,9.49-1.67.32-2.72-.13-3.74-.91-2.26-1.73-4.93-1.74-7.46-2.45-3.23-.91-5.45.14-7.94,1.38-1.51.75-2.86.83-4.53.23"/><path class="d" d="m672.84,466.27v9.38"/><path class="d" d="m7.22,69.89c4.5,7.5,51.08,31.88,63.38,33.75"/><path class="d" d="m1195.59,9.89c-.17,2.79-2.75,1.7-3.75,1.72-6.85.12-13.52,1.75-20.19,2.76-3.39.52-7.21.5-10.64,2.09-1.15.53-4.83,2.29-4.79-2.07"/><path class="d" d="m1155.84,17.02c-.66.87-1.66,1.67-2.59,1.07-3.06-1.96-5.8-.14-8.66.43"/><path class="d" d="m745.22,159.14c1.13.83,1.76,2.87,3.82.82,1.61-1.6,3.67.37,5.55.3"/><path class="d" d="m589.59,172.27c-3.33.75-6.36,2.22-9.38,3.75"/><path class="d" d="m711.09,144.52c0,3.75.01,7.5-.02,11.25,0,.46.46,1.38-.73,1.13"/><path class="d" d="m61.59,66.52c-2.21,2.58-4.15,5.45-7.5,6.75"/><path class="d" d="m774.09,261.89c-3.39,1.37-3.89,3.83-3.05,7.14.9,3.54,1.74,7.16.8,10.86"/><path class="d" d="m672.47,455.39c1.64,3.16.21,6.06-.75,9"/><path class="d" d="m709.59,491.39c-2.37,0-4.77-.21-7.12.06-2.29.27-3.6-1.97-6.02-1.74-1.77.17-3.73-.18-5.61-.01"/><path class="d" d="m774.47,420.52c2.22.61,4.27,1.81,6.81.49.99-.52,2.69,2.47,4.06-.12"/><path class="d" d="m776.72,193.27c.23,2.87,2.21,5.66.38,8.62"/><path class="d" d="m131.34,136.64c-3-1-6-2-9-3"/><path class="d" d="m703.97,56.77c-6.73-2.54-13.32-3.18-19.5,1.5"/><path class="d" d="m741.09,362.77c-.87.21-1.63-1.41-2.66-.03-.99,1.33.27,1.68.8,2.26,1.99,2.16,3.77,4.33,2.23,7.52"/><path class="d" d="m541.59,188.02v8.62"/><path class="d" d="m705.47,471.52c-1.05-2.57-.73-6.18-4.88-6.38"/><path class="d" d="m231.84,25.64c2.44,2.8,5.08,3.3,7.87,1.49.06-.04.05-.27,0-.36-.09-.15-.24-.26-.36-.38"/><path class="d" d="m533.72,132.52c1.88,1.62,3.82,3.18,5.6,4.9,1.02.99,1.95.8,3.03.35"/><path class="d" d="m815.72,323.77c-1.13.51-3.1.38-1.89,2.63.76,1.41.27,2.99.39,4.49"/><path class="d" d="m768.84,316.27c-.88,1-1.87,1.92-2.6,3.01-2.73,4.08-2.84,4.16-7.9,2.99"/><path class="d" d="m179.72,44.77c-2.5-2.09-5.77-1.94-8.62-3"/><path class="d" d="m696.47,366.89c.05,1.55,1.1,1.48,2.25,1.53,1.88.07,3.79-.43,5.63.35"/><path class="d" d="m819.47,239.02c.5.38,1.06.7,1.48,1.14.36.38,1.23.6.43,1.52-.68.78-1.08.03-1.53-.07-2.53-.52-4.5-2.23-6.76-3.34"/><path class="d" d="m770.72,386.02c-2.76,1.56-5.76.39-8.62.75"/><path class="d" d="m548.34,164.77c.18,2.87-.4,5.78.38,8.62"/><path class="d" d="m762.09,128.39c.13,2.88.25,5.75.38,8.62"/><path class="d" d="m700.22,236.77c1.31,2.6.13,5.87,2.25,8.25"/><path class="d" d="m794.34,137.39c.18,2.75-.4,5.53.38,8.25"/><path class="d" d="m783.09,220.27c2.54,1.67,5.22,2.56,8.25,1.5"/><path class="d" d="m610.97,131.02c-.66.95-1,2.08-2.24,2.66-3.2,1.49-3.16,4.94-3.17,7.47-.01,2.86-.35,5.53-.97,8.25"/><path class="d" d="m789.09,224.02c1.38,1.48,1.87,3.37,1.82,5.25-.09,3.85,1.9,6.65,4.18,9.38"/><path class="d" d="m699.47,492.52c-1.43,1.46-2.17,3.28-2.21,5.25-.04,2.24-1.09,3.54-3.04,4.31"/><path class="d" d="m272.72,142.27c2.63,2.63,5.17,5.36,8.25,7.5"/><path class="d" d="m786.84,379.27c2.71.66,5.4,1.5,8.25,1.12"/><path class="d" d="m963.47,259.27c3.06,5.52,8.58,7.67,13.88,10.12"/><path class="d" d="m705.47,125.77c-1.85,2.5-.57,5.58-1.5,8.25"/><path class="d" d="m697.59,494.39c-2.75.25-5.5.5-8.25.75"/><path class="d" d="m686.34,453.52c-3.39-1.92-6.64-4.19-10.88-3.79-1.23.12-2.79.21-3.7-.41-5.35-3.66-10.54-3.3-15.8.06-1.08.69-2.24,1.26-3.37,1.88"/><path class="d" d="m753.47,305.39c-.65,3.51-1.29,7.03-6,7.12"/><path class="d" d="m930.09,305.39c1.9,3.1,5.38,4.62,7.5,7.5"/><path class="d" d="m681.09,235.64c-.13,2.78,1.27,5.43.75,8.25"/><path class="d" d="m754.97,381.14c-.04,2.41.08,4.79.74,7.13"/><path class="d" d="m668.72,465.89c-.12,2.75-.25,5.5-.38,8.25"/><path class="d" d="m1288.59,18.89c-2.77-.26-5.56-1.11-8.25.38"/><path class="d" d="m778.22,325.64c-.25,2.8.3,5.52.75,8.25"/><path class="d" d="m717.84,413.02c-1.02,1.08-2.22,1.53-3.75,1.56-1.46.03-2.96.36-4.13,1.44"/><path class="d" d="m765.09,155.77c1.08,2.55,1.43,5.16.75,7.88"/><path class="d" d="m825.84,147.89c-.76,2.2-1.54,4.12,2.25,4.19,5.71.12,9.52,3.58,12.33,8.21.68,1.13,1.18,2.37,2.11,3.35"/><path class="d" d="m624.47,401.77c-2.78,2.48-.46,5.79-1.34,8.67-.48,1.57-.79,3.43-.91,5.2"/><path class="d" d="m1324.22,25.27c2.45,1.59,5.34.13,7.88,1.12"/><path class="d" d="m1206.84,150.14c2.33,2.11,5.71,2.51,7.88,4.88"/><path class="d" d="m690.84,462.52c-2.5.5-5,1.38-7.5,1.4-2.75.02-4.91.8-6.75,2.73"/><path class="d" d="m655.22,406.27c1.19,2.62-.73,5.25,0,7.88"/><path class="d" d="m599.34,347.39c-1.07,6.83,3.41,11.57,6.43,16.84.21.36,1.2.28,1.82.41"/><path class="d" d="m623.72,420.52c-.83,2.59-.14,5.25-.38,7.88"/><path class="d" d="m681.47,65.77c-2.32,1.89-4.88,3.27-7.88,3.75"/><path class="d" d="m687.09,159.89c1.15,2.38-.87,5.24,1.12,7.5"/><path class="d" d="m719.34,456.52c-1.5.32-2.93.56-4.52.08-.98-.3-1.81.51-1.48,1.8"/><path class="d" d="m396.09,324.14c-2.08-2.31-4.85-1.86-7.5-1.88"/><path class="d" d="m619.22,399.89c-.69-2.46-1.87-4.24-4.88-3.76-2.65.42-3.09,1.48-1.12,3.39"/><path class="d" d="m660.09,407.39c.8,2.47.18,5,.38,7.5"/><path class="d" d="m859.22,133.27c-1.2,1-2.05,3.06-4.18,1.19-.36-.32-1.56-.01-2.18.35-2.57,1.5-5.5,1.52-8.27,2.22"/><path class="d" d="m328.97,44.02c-.31,2.83-1.76,5.22-3,7.69"/><path class="d" d="m677.34,333.14c2.98-.24,3.56,2.21,4.46,4.14.59,1.27.79,2.73,1.17,4.11"/><path class="d" d="m630.09,336.14c.05,2.56.16,5.14-1.12,7.5"/><path class="d" d="m1092.84,231.52c2.5.88,5,1.75,7.5,2.62"/><path class="d" d="m727.97,364.27c.41,1.05.45,2.73,1.52,2.91,4.31.74,3.62,3.92,3.82,6.83.03.42.22.99.29,1.51"/><path class="d" d="m613.59,144.14c1.82,2.18,1.57,4.98,2.25,7.5"/><path class="d" d="m636.47,419.02c1.48,2.32,3.32,4.42,4.12,7.12"/><path class="d" d="m832.59,144.89c.15.5-.87.9-.01,1.52,2.31,1.68,2.06,3.61.39,5.61"/><path class="d" d="m251.34,27.52c-.63.38-1.41,1.2-1.85,1.05-3.07-1.06-6.29-.52-9.4-1.05"/><path class="d" d="m454.97,272.39c-2.4.04-4.83-.27-7.12.75"/><path class="d" d="m798.47,212.77c-4.35.09-2.9,3.45-2.83,5.62.02.77.19,2.15.96,3.01"/><path class="d" d="m277.59,26.02c6.78,1.07,13.73,1.27,20.25,3.75"/><path class="d" d="m727.97,383.39c-.86,2.18-.08,4.83-1.88,6.75"/><path class="d" d="m94.22,83.77c-2.38,1.63-4.75,3.25-7.12,4.88"/><path class="d" d="m788.34,194.02c-5.47,2.93-9.67-.05-13.88-3"/><path class="d" d="m648.09,182.02c-2.38,1-4.75,2-7.12,3"/><path class="d" d="m664.22,354.52c-2.65,1.63-4.56,3.63-4.2,7.13.1.95-.68,1.99-1.05,2.99"/><path class="d" d="m600.47,200.77c-1.46,2.15-1.72,4.68-2.25,7.12"/><path class="d" d="m588.84,228.52c.68.32,2.07.32,1.44,1.46-.76,1.37-1.75,2.61-2.19,4.16"/><path class="d" d="m619.59,416.02c-1.78-2.6-4.48-1.1-6.75-1.5"/><path class="d" d="m776.72,372.14c0,2.28-.19,4.58.75,6.75"/><path class="d" d="m276.09,25.64c-2.86.51-5.99-1.05-8.62,1.12"/><path class="d" d="m384.84,299.39c-1.32,2.68-4.76,3.24-6,6"/><path class="d" d="m220.22,81.14c1.41-1.03,2.79-1.99,3.38.75.44,2.07,1.51,3.86,2.62,5.63"/><path class="d" d="m1081.59,273.14l6.75,3.38"/><path class="d" d="m297.09,208.27h-6.75"/><path class="d" d="m1165.59,70.27c-.82,2.21-1.62,4.43-3,6.38"/><path class="d" d="m739.22,401.39c-.06,2.26,1.03,4.24,1.5,6.38"/><path class="d" d="m828.09,132.14c1.08,4.46-2.68,5.47-5.31,7.02-1,.59-2.08,1.38-3.69,1.39-2.31.01-3.93,1.56-3,4.34"/><path class="d" d="m721.22,474.52c2,1.29,4.24.56,6.38.75"/><path class="d" d="m661.97,368.39v6.38"/><path class="d" d="m310.22,32.77c-.25,2.13-.5,4.25-.75,6.38"/><path class="d" d="m717.09,370.64c.25,2.12.5,4.25.75,6.38"/><path class="d" d="m424.22,270.89c1.87,1.66,1.77,4.67,4.12,6"/><path class="d" d="m756.84,316.64c-1.12,1.84-3.75,3.22-1.88,6"/><path class="d" d="m79.59,95.39c-2.23,2.58-4.52,5.12-6,8.25"/><path class="d" d="m200.72,23.39c1.14-5.05,1.13-4.8,6-4.56,6.32.31,12.45,1.95,18.75,2.33,2.07.12,3.92.89,5.25,2.61"/><path class="d" d="m689.72,243.14c-.56,2.59.89,4.46,2.25,6.38"/><path class="d" d="m537.47,463.27c-2.74,1.58-3.69,4.21-4.12,7.12"/><path class="d" d="m766.59,373.64c1.25,1.95,1.54,4.12,1.5,6.38"/><path class="d" d="m823.22,280.64c-1.88-1.56-4.1-1.66-6.38-1.5"/><path class="d" d="m703.22,107.02c-2.19-.71-4.35-1.67-6.75-1.12"/><path class="d" d="m612.47,106.27c-.8,1.96-.17,4.01-.38,6"/><path class="d" d="m620.34,104.39c.32,2.2-2.24,3.69-1.5,6"/><path class="d" d="m977.34,228.14c.09,2.25,1.73,3.91,2.25,6"/><path class="d" d="m631.59,386.02c-1.12,2.81-1.91,5.77-3.75,8.25"/><path class="d" d="m600.47,238.64c-1.54,1.4-1.2,4.25-3.75,4.88"/><path class="d" d="m832.97,427.27c-2.56,1.52-5.19,1.44-7.88.38"/><path class="d" d="m635.72,386.77c-1.09,1.88.7,3.73.04,5.64-.2.58.41,1.1,1.08,1.1,2.76.01,5.58,1.58,8.25-.36"/><path class="d" d="m871.59,94.27c1.28,1.93-.23,4.03.38,6"/><path class="d" d="m748.59,372.89c.79,1.93.81,3.96.75,6"/><path class="d" d="m557.72,192.14c-.55,2.02-.41,4.26-1.88,6"/><path class="d" d="m788.72,402.14c.69,2.47.21,5,.38,7.5"/><path class="d" d="m826.97,186.89v6"/><path class="d" d="m777.47,263.39c-.15,2.1,1.74,3.81,1.12,6"/><path class="d" d="m594.09,221.77c-2.05,1.48-1.22,4.23-2.62,6"/><path class="d" d="m907.97,83.02c-2.58.97-3.34,2.71-2.25,5.25"/><path class="d" d="m733.59,300.14c.55,2.06.64,4.03-1.12,5.62"/><path class="d" d="m604.59,294.14c1.23,2.84,3.2.8,4.88.75"/><path class="d" d="m753.09,338.39c-1.83.71-2.59,3.57-5.25,2.62"/><path class="d" d="m858.47,459.14c-2.92,1.3-2.79,4.47-4.12,6.75"/><path class="d" d="m958.22,62.02c.69,1.12,4.2,1.95.05,3.5-2.1.78.13,2.87-.05,4.37"/><path class="d" d="m106.22,119.02c-1.77-.91-3.65-1.26-5.62-1.12"/><path class="d" d="m650.34,415.27c.13,1.88.25,3.75.38,5.62"/><path class="d" d="m763.22,373.64v5.62"/><path class="d" d="m752.34,374.39c1.51,1.71.44,3.76.75,5.62"/><path class="d" d="m1001.34,47.39l1.12,5.62"/><path class="d" d="m708.47,383.77c.72,1.81,1.67,3.59.75,5.62"/><path class="d" d="m730.59,438.14c.71-2.53,2.49-2.64,4.49-1.85,1.55.62,3.01,1.47,4.51,2.22"/><path class="d" d="m813.09,212.39c-.44,1.47-.41,1.58,0,1.48,3.83-.88,7.54,0,11.25.77"/><path class="d" d="m702.47,116.39c1.75,1.5,1.42,3.69,1.88,5.62"/><path class="d" d="m636.47,78.52c-1.88-.62-3.75-1.25-5.62-1.88"/><path class="d" d="m678.84,132.14c.12,1.75.25,3.5.38,5.25"/><path class="d" d="m685.59,333.89c.12,1.75.25,3.5.38,5.25"/><path class="d" d="m639.09,345.14c-1.75.12-3.5.25-5.25.38"/><path class="d" d="m704.34,459.89c1.15,3.25,5.29,3.82,6.38,7.12"/><path class="d" d="m832.22,180.14c-.12,1.77-1.15,3.41-.75,5.25"/><path class="d" d="m628.59,137.39c-.13,1.75-.25,3.5-.38,5.25"/><path class="d" d="m900.47,85.64c-.98,1.75-1.03,3.5,0,5.25"/><path class="d" d="m562.59,211.27c-3.5.12-7,.25-10.5.38"/><path class="d" d="m567.09,410.39c-1.75,1-3.5,2-5.25,3"/><path class="d" d="m1207.59,41.39c-.56-.75-.09-1.5.01-2.25.07-.51.11-1.33.39-1.44.83-.32.88.5,1.11,1.06.91,2.15,2.39,3.6,4.86,3.76"/><path class="d" d="m624.09,129.89c-.83,1.68-1.73,3.33-1.88,5.25"/><path class="d" d="m516.84,293.02c-1.94.89-3.78,1.9-4.5,4.12"/><path class="d" d="m736.97,57.89c-.12,1.77-1.15,3.41-.75,5.25"/><path class="d" d="m650.72,372.89c-.22,1.82.38,3.52.75,5.25"/><path class="d" d="m651.47,135.89c-.4,1.84.63,3.48.75,5.25"/><path class="d" d="m624.09,407.39c4,1.37,8.01,2.73,11.98,4.17.25.09.27.83.39,1.27"/><path class="d" d="m610.59,356.02c1.75.5,3.5,1,5.25,1.5"/><path class="d" d="m612.09,386.02c-1.71.71-3.5.31-5.25.38"/><path class="d" d="m694.22,453.14c-.25,1.75-.5,3.5-.75,5.25"/><path class="d" d="m731.34,404.39c-.26,1.89.35,3.59,1.12,5.25"/><path class="d" d="m780.84,255.14c-.07.68-.47.96-1.12,1.14-2.6.73-3.48,2.4-1.07,4.02,2.65,1.77,1.87,3.61,1.06,5.72"/><path class="d" d="m572.72,302.02c-2.86.5-3.1.95-1.88,3.38"/><path class="d" d="m607.97,120.89c.06,2.82-.61,5.79,2.22,7.91,1.19.89,2.37,1.22,3.78,1.09"/><path class="d" d="m636.84,424.27c-1.87-.03-3.74-.08-5.25,1.31"/><path class="d" d="m394.59,227.39c-.25,1.62-.5,3.25-.75,4.88"/><path class="d" d="m705.09,450.14c.29,1.37-.41,2.76.65,4.2.73.98.09,2.42-1.4,2.93"/><path class="d" d="m626.34,432.52c.63,2.75,1.25,5.5,1.88,8.25"/><path class="d" d="m733.97,338.02c1.68,1.63.05,3.25,0,4.88"/><path class="d" d="m143.34,134.39c-1.67,1.08-3.51,1.99-4.12,4.12"/><path class="d" d="m617.34,90.89c1.51.88,3.48-.26,4.88,1.12"/><path class="d" d="m679.97,124.27c.32,1.61,1.05,3.17.75,4.88"/><path class="d" d="m772.59,123.89c-1.62.12-3.25.25-4.88.38"/><path class="d" d="m771.84,137.02c-1.71.3-3.26-.43-4.88-.75"/><path class="d" d="m707.72,123.52c1.38,1.39.25,3.37,1.12,4.88"/><path class="d" d="m645.09,394.27c1.37,1.68,3.15,1.58,4.43.3,1.09-1.09-.48-2.41-.68-3.68"/><path class="d" d="m775.22,272.77c.32,1.61,1.05,3.17.75,4.88"/><path class="d" d="m585.84,319.27c4.61,3.23,4.15,7.28,1.88,11.62"/><path class="d" d="m745.97,321.14c.38,1.63.75,3.25,1.12,4.88"/><path class="d" d="m825.47,277.64c1.62.12,3.29-.33,4.88.38"/><path class="d" d="m709.59,432.89c-3.07,1.28-3.56,3.85-3.38,6.75"/><path class="d" d="m774.47,362.77c.32,1.61,1.05,3.17.75,4.88"/><path class="d" d="m619.59,281.39c1.68.53,3.33.79,4.88-.38"/><path class="d" d="m936.84,72.14c-.63,1.57-.85,3.2-.75,4.88"/><path class="d" d="m602.34,157.64c2.15.4,3.1,2.11,4.12,3.75"/><path class="d" d="m584.34,212.77c-2.42-1.2-4.02.92-6.01,1.46-1.06.28-1.72,1.52-2.99,1.17"/><path class="d" d="m795.47,111.89c.29,2.2,1.25,4.61-1.52,5.95-.46.22-1.23-.2-1.85-.33"/><path class="d" d="m747.09,384.89c.25,1.5.5,3,.75,4.5"/><path class="d" d="m676.97,471.89l-1.12,4.5"/><path class="d" d="m784.22,284.77c.5,1.5,1,3,1.5,4.5"/><path class="d" d="m828.84,147.14c-.13,1.5-.25,3-.38,4.5"/><path class="d" d="m829.59,118.64c1.11,1.16,2.17,2.33,1.88,4.12"/><path class="d" d="m715.22,54.89c.25,1.5.5,3,.75,4.5"/><path class="d" d="m605.72,332.02c-1.08.42-1.56,1.46-2.31,2.18-1.15,1.09-2.67,1.61-2.56-1.06"/><path class="d" d="m823.97,121.64l1.12,4.5"/><path class="d" d="m765.09,128.39l1.12,4.5"/><path class="d" d="m585.84,243.52c-1.77.41-3.12,1.55-4.5,2.62"/><path class="d" d="m768.09,74.39c-1.5.12-3,.25-4.5.38"/><path class="d" d="m588.47,271.27c-1.54,1.11-.96,3.46-2.62,4.5"/><path class="d" d="m284.72,27.52c-.62,1.5-1.25,3-1.88,4.5"/><path class="d" d="m614.72,306.52c-3.42-.14-4.83,3.54-7.88,4.12"/><path class="d" d="m1198.22,5.77c.27,1.56,1.07,3.03.75,4.69"/><path class="d" d="m1379.72,33.89c-2.37.94-4.75-.14-7.12,0"/><path class="d" d="m964.97,272.39c1.25,1.38,2.5,2.75,3.75,4.12"/><path class="d" d="m1164.47,178.27c.5.38.98.77,1.5,1.12,2.24,1.51,2.79,2.98,0,4.52-.69.38-1.26.98-1.88,1.48"/><path class="d" d="m823.22,194.02c-1.43,3.82-5.22,4.05-8.29,5.13-1.11.39-2.46.77-3.71.83-2.25.1-3.7-1.04-4.12-3.33"/><path class="d" d="m746.34,133.64c-.63,1.33-.29,2.75-.38,4.12"/><path class="d" d="m711.09,113.77c.08,1.38-.26,2.8.38,4.12"/><path class="d" d="m822.47,365.02c1.69.56,2.81,1.69,3.38,3.38"/><path class="d" d="m827.72,422.77c1.05,1.55,2.44,1.87,4.12,1.12"/><path class="d" d="m673.22,384.14c-.57,1.28.07,3.16-1.88,3.75"/><path class="d" d="m570.47,430.27c.76,1.32.2,2.75.38,4.12"/><path class="d" d="m150.84,17.02c1.84,2.31,4.56,2.38,7.13,2.57,1.1.08,2.03.44,3,.81"/><path class="d" d="m930.84,74.39c-.41,1.5.88,2.68.75,4.12"/><path class="d" d="m689.72,384.89c-.57,1.28.07,3.16-1.88,3.75"/><path class="d" d="m608.34,392.39c.38,0,.77.07,1.12-.01,1.61-.36,3.95-1.79,2.62,1.88-.32.88.82,1.13.76,1.88"/><path class="d" d="m775.22,427.27c1.72.52,1.91,1.88,1.88,3.38"/><path class="d" d="m624.47,72.52c-2.06-1.53-3.46-.8-3.67,1.51-.17,1.84-2.29,2.9-1.38,5.31.56,1.48-2.96.93-3.2,2.93"/><path class="d" d="m771.87,113.4c3.83-4.16,2.25-8.12,7.85-6.38"/><path class="d" d="m737.72,367.64c.84,1.57.25,2.89-.75,4.12"/><path class="d" d="m842.34,137.77c-2.09,1.56-5.62,1.77-5.25,5.62"/><path class="d" d="m716.72,487.64c-1.5.02-2.64.25-2.74,2.24-.03.61-.78,1.98-2.13,1.88"/><path class="d" d="m108.47,36.52c-1.1.35-1.43,1.29-1.91,2.23-1.19,2.35-2.61,4.42-5.58,4.96-1.41.26-2.7.91-3.14,2.9-.36,1.65-1.77,3.35-3.99,1.53"/><path class="d" d="m713.72,390.14c.42,2.03-1.69,3.56-1.12,5.62"/><path class="d" d="m609.84,240.52c1.56.83,3.66.41,4.88,2.06"/><path class="d" d="m795.09,384.89c-1.25-.13-2.5-.25-3.75-.38"/><path class="d" d="m1014.84,205.64c-1.25-.38-2.5-.75-3.75-1.12"/><path class="d" d="m692.34,441.14c-2.56.95-5.32-.28-7.88.75"/><path class="d" d="m919.22,78.89c.25,1.25.5,2.5.75,3.75"/><path class="d" d="m619.97,355.27c-3.6,1.75-6.62,3.85-5.25,8.62"/><path class="d" d="m1351.59,68.77c-1.6-.78-2.58.47-3.75,1.12"/><path class="d" d="m717.09,393.14c-.23,2.27-1.45,3.09-3.75,3.06-2.5-.02-5.02.33-7.49.74-1.08.18-1.8,1.16-2.26,2.2"/><path class="d" d="m710.72,396.89c.86,1.18.32,2.49.38,3.75"/><path class="d" d="m609.84,308.02c-2.24-1.92-3.6.27-5.25,1.12"/><path class="d" d="m657.09,309.14c-.87-2.14-3.39-.31-4.5-1.88"/><path class="d" d="m708.84,463.64c.39-1.73,1.7-3.13.87-5.3-.65-1.71-1.18.04-1.62-.33"/><path class="d" d="m799.22,133.64c1.16.98,1.23,2.41,1.5,3.75"/><path class="d" d="m699.84,90.89c-1.2.6-2.49.31-3.75.38"/><path class="d" d="m1091.34,231.52c-1.25.63-2.5,1.25-3.75,1.88"/><path class="d" d="m938.34,267.52c.27,1.44.62,2.84,2.25,3.38"/><path class="d" d="m953.72,63.89c1.06,2.26.14,4.93,1.5,7.12"/><path class="d" d="m1211.34,6.89c-1.12-.12-2.25-.25-3.38-.38"/><path class="d" d="m744.47,404.02c1.58-.22,1.54-2.33,3-2.6,1.12-.21,2.21-.1,2.25,1.48"/><path class="d" d="m750.09,389.39c-1.62,2.82,1.66,4.61,1.5,7.12"/><path class="d" d="m831.47,209.77c-2.5-1.59-5.27-.33-7.88-.75"/><path class="d" d="m312.84,35.39c1.77,2.24-.09,4.26-.38,6.38"/><path class="d" d="m784.97,247.27c-1.08-.52-2.21-.57-3.38-.38"/><path class="d" d="m771.47,207.89c.89.8,1.86,1.57,1.5,3"/><path class="d" d="m715.22,480.89c2.06,2.42,1.35,5.48,1.88,8.25"/><path class="d" d="m181.59,16.27v5.62"/><path class="d" d="m787.59,249.89c-1.9.79.72,3.64-1.88,4.12"/><path class="d" d="m798.84,113.39c-.43,1.26-1.46,1.84-2.62,2.25"/><path class="d" d="m762.09,323.39c-.19,1.11.21,2.07.75,3"/><path class="d" d="m785.34,427.27c-1.2-.67-2.31-2.12-3.75-.38"/><path class="d" d="m651.09,394.27c2.27-2.73,3.8.11,5.62.75"/><path class="d" d="m366.09,315.52c2.74-.19,4.31,1.7,6,3.38"/><path class="d" d="m809.34,233.77c2.44.33,1.74,2.94,3,4.12"/><path class="d" d="m645.84,433.27c-2.68-.99-5.25.25-7.88.38"/><path class="d" d="m370.59,312.89c-.25,1.13-1.77,1.62-1.5,3"/><path class="d" d="m704.34,508.27c-.79.93-1.85,1.15-3,1.12"/><path class="d" d="m692.34,94.64c.97.37,1.87,1.02,3,.75"/><path class="d" d="m7.22,48.89h2.62"/><path class="d" d="m652.22,432.89c-1.5,2.56-4.59,3.73-7.88,3"/><path class="d" d="m790.97,312.52c.38.87.83,1.67,1.88,1.88"/><path class="d" d="m781.59,428.39c.75.87,1.5,1.75,2.25,2.62"/><path class="d" d="m733.59,428.77c1.9-.83,3.6-.17,5.25.75"/><path class="d" d="m676.97,480.52c-.13.88-.25,1.75-.38,2.62"/><path class="d" d="m684.84,397.27c2.97-2.47,4.47-.27,6,1.88"/><path class="d" d="m724.22,393.14c1.31,1.45,3.06,1.74,4.88,1.88"/><path class="d" d="m657.84,392.39c.43,1.85-1.73,3.32-.75,5.25"/><path class="d" d="m757.22,361.27c-.75,1.69-2.53,3.46.38,4.88"/><path class="d" d="m482.72,323.02c-1.42,3.08-3.74,5.03-7.12,5.62"/><path class="d" d="m605.72,343.27c-1.26,1.54-.87,3.2-.38,4.88"/><path class="d" d="m633.47,321.89c1.3,2.07,3.65.49,5.25,1.5"/><path class="d" d="m736.22,401.39c-.34,1.37-1.51,2.75,0,4.12"/><path class="d" d="m747.84,347.02c.38-.5,1.17-1.26,1.05-1.46-.53-.88-1.45-1.32-2.55-1.17"/><path class="d" d="m651.47,395.77c.56,1.11,1.83.55,2.62,1.12"/><path class="d" d="m715.97,118.27c-.25.5-.5,1-.75,1.5"/><path class="d" d="m709.22,221.77c-.25.38-.5.75-.75,1.12"/><path class="d" d="m750.08,177.03c1.93,10.6-.6,20.34-6.32,29.18-3.87,5.99-2.92,13.17-5.63,19.36,2.42,2.01-.45,5.79,2.55,7.6"/><path class="d" d="m750.84,257.91c-3.89-1.74-7.86-3.35-11.67-5.26-4.08-2.04-7.69-1.25-11.22,1.17-.78.54-1.63.99-2.44,1.47"/><path class="d" d="m726.51,271.05c-5.69-1.21-11.34-1.01-16.98.39"/><path class="d" d="m752.37,244.08c-1.1,5.2.71,9.99,2.02,14.86.03.12.08.26.04.37-.17.47-.42.57-.71.29"/><path class="d" d="m736.91,224.99c-.79-.23-.98-1.34-2.06-1.26-4.36.36-6.99-2.18-9.08-5.56"/><path class="d" d="m738.1,183.57c-2.35,5.71-5.11,11.31-10.56,14.57-4.14,2.48-6.98,5.69-8.82,10-.67,1.56-.69,2.93.75,4.07"/><path class="d" d="m729.29,252.51c-.55-4.09-1.11-8.18-1.66-12.26"/><path class="d" d="m770.85,187.58c-2.76,1.38-3.16,5.16-5.56,7.01-2.88,2.23-3.87,4.35-2.06,7.95,1.11,2.2.37,5.23,2.6,7.19.31.28.55,1.23.37,1.39-3.07,2.88.55,7.37-2.52,10.26-.93.87-2.11,1.99-.69,3.47"/><path class="d" d="m749.64,224.01c-2.86-.42-4.04,1.3-4.81,3.67-1.32,4.03-4.78,7.66-2.15,12.43.33.6-.71,1.14-1.18,1.7-1.72,2.01-3.26,4.18-4.86,6.29"/><path class="d" d="m725.74,198.5c-.43-3.73-2.9-7.21-1.33-11.17"/><path class="d" d="m722.13,252.73c-.09-3.64.53-7.31-.35-10.93"/><path class="d" d="m750.87,260.93c-3.35.46-6.28,3.3-9.98,1.73"/><path class="d" d="m763.08,236.57c.33.59,1.02,1.23.94,1.75-1.17,7.46-1.72,15.1-6.09,21.66"/><path class="d" d="m740.96,260.39c.64,2.92-1.71,3.82-3.51,4.98-1.18.76-2.6,1.15-3.91,1.71"/><path class="d" d="m731.63,213.97c-2.53.39-5.07.85-7.58-.11"/><path class="d" d="m741.32,268.66c-1.72.36-3.43.72-5.15,1.08"/><path class="d" d="m723.92,224.1c-.36-1.72-.72-3.43-1.08-5.15"/><path class="d" d="m758.91,194.75c-.32-3.4-4.16-4.31-5.15-7.25"/><path class="d" d="m756.77,190.12c1.6-2.48-.75-3.53-1.82-5.05"/><path class="d" d="m762.01,237.09c2.01-1.15-.14-3.4,1.25-4.71"/><path class="d" d="m746.2,215.4c-1.88,1.57,0,3.68-.78,5.4"/><path class="d" d="m668.61,240.26c1.92-3.21,3.21-6.3,1.9-10.35-.82-2.53-.87-5.48,1.47-8.16,2.4-2.74,2.87-6.42,3.57-10.2,1.24-6.75.63-14.6,6.92-19.72.83-.67,1.66-1.34,2.5-2.01"/><path class="d" d="m658.83,207.45c6.49-2.36,9.7-7.12,10.44-13.88.39-3.57,1.2-7.1,1.9-10.63.78-3.96-1.85-8.24-5.6-8.97-4.2-.82-6.93,1.66-8.43,5.93-2.76,7.83-4.34,16.24-9.92,22.86"/><path class="d" d="m681.15,180.79c2.5,4.6,4.93,9.26,7.55,13.79.96,1.66,1.65,3.16,1.33,5.17-.3,1.86-.1,3.93,1.14,5.39.86,1.01.63,2.36,1.55,3.2"/><path class="d" d="m703.12,192.27c6.74.78,8.25,2.77,10.91,9.77,1.56,4.09,2.05,9.09,6.39,11.8"/><path class="d" d="m655.82,209.59c1.03,2.93,2.04,5.87,3.08,8.79,1.4,3.95-1.11,7.13-2.37,10.39-2.02,5.24-1.97,6.61,2.21,10.48,1.91,1.77,3.56,3.81,5.33,5.73"/><path class="d" d="m701.7,181.41c-2.35,6.54-4.63,13.11-4.11,20.22.19,2.61-2.19,2.54-3.47,3.62"/><path class="d" d="m692.67,209.18c.41,1.26.7,2.59,1.27,3.78,2.12,4.43,2.13,4.57-1.45,8.32"/><path class="d" d="m675.48,216.87c2.68,2.35,5.39,4.69,3.08,8.79"/><path class="d" d="m705.51,205.89c2.28,1.64,4.9,2.56,7.48,3.56"/><path class="d" d="m660.84,231.3c2.05.58,3.79,1.5,4.27,3.83"/><path class="d" d="m703.69,234c-.33,1.94,1.75,4.05-.42,5.85"/><path class="d" d="m693.62,250.27c2.25-.62,2.82,1.61,4.2,2.48"/><path class="d" d="m673.4,179.9c1.55.33,3.09.67,4.64,1"/><path class="d" d="m695.36,218.62c.86.73,1.89.87,2.96.88"/><path class="d" d="m636.87,297.13c.76-3.66.97-7-1.6-10.41-1.6-2.12-2.62-4.89-1.29-8.19,1.36-3.38.6-7.01.02-10.81-1.04-6.79-4.2-14,.06-20.9.56-.91,1.13-1.81,1.7-2.72"/><path class="d" d="m647.91,267.23c6.8,4.83,9.01,15.56,5.32,23.29-2.22,4.65-3.59,9.71-5.35,14.58"/><path class="d" d="m667.23,246.12c2.81,3.35,4.92,7.91,9.91,9.05"/><path class="d" d="m648.81,230.68c-.07,6.95-.07,13.9,2.76,20.45,1.04,2.4-1.24,3.12-2.09,4.56"/><path class="d" d="m649.4,259.88c.81,1.06,1.51,2.21,2.44,3.15,3.46,3.49,3.51,3.61,1.36,8.33"/><path class="d" d="m635.69,272.79c3.31,1.34,6.63,2.66,5.79,7.3"/><path class="d" d="m660.45,252.55c2.69.8,5.47.81,8.23.9"/><path class="d" d="m647.38,271.71c1.59,1.47,2.41,4.31,5.51,3.03"/><path class="d" d="m667.95,279.71c.33,1.94,2.98,3.25,1.53,5.67"/><path class="d" d="m663.78,298.38c1.93-1.32,3.2.59,4.78.97"/><path class="d" d="m649.63,283.27c1.67-.04,3.33-.09,5-.13"/><path class="d" d="m655.04,267.91c1.05.41,2.07.2,3.09-.14"/></g></svg>