<?xml version="1.0" encoding="UTF-8"?><svg id="b" xmlns="http://www.w3.org/2000/svg" width="366.38" height="365.48" viewBox="0 0 366.38 365.48"><defs><style>.h{fill:none;stroke:#000;stroke-miterlimit:10;stroke-width:3px;}</style></defs><g id="c"><g id="d"><g id="e"><path class="h" d="m1.4,196.22c-4.87-45.06,10.41-89.92,37.64-125.62,72.26-88.72,195.47-96.07,282.11-5.71,47.82,49.87,46.42,89.48,43.56,130.9-10.31,12.71-24.69,21.47-39.33,28.34,14.89-54.75-.2-111.26-42.08-149.73C212.85,9.7,98.3,27.22,52.58,111.84"/><path class="h" d="m40.73,224.13c10.2,35.65,35.97,69,68.1,87.55-2.42,1.62,1.64,6.35,4.02,5.08.39.27-.1,1.06.85,1.69,3.52,2.35,21.61,12.88,26.01,15.23,12.47,6.65,22.04,10.92,36.59,11.84,19.82,1.26,31.91-2.79,48.85-11.84,4.57-2.44,33.96-18.71,31.3-21.57,32.09-18.28,59.25-52.32,68.94-87.97,14.64-6.87,29.02-15.63,39.33-28.34-1.19,17.17-3.23,29.25-8.46,45.68-3.3-.25-1.4.58-1.69,1.06-2.45,3.98-3.56,8.88-5.5,13.11-16.52,35.99-38.96,61.16-72.11,82.69-5.31,3.45-10.29,7.24-6.56,5.5-45.26,21.15-88.04,21.04-100.03,21.15l-22.84-2.54c-.73-.97-2.36-1.03-3.6-1.27,0-.28.12-.73-.21-.85-3.95-1.41-11.87-2.9-16.92-4.65-27.77-9.65-59.96-29.94-79.73-51.81-7.81-8.63-13.96-18.6-21.15-27.7"/><path class="h" d="m356.26,241.47c-14.04,44.1-45.05,80.67-85.86,102.36-4.05-.77,1.25-2.05,6.56-5.5,33.15-21.53,55.59-46.69,72.11-82.69,1.94-4.23,3.05-9.13,5.5-13.11.29-.47-1.6-1.3,1.69-1.06Z"/><path class="h" d="m143.93,361.17c-50.09-9.83-92.38-41.06-118-85.01,7.19,9.1,13.34,19.07,21.15,27.7,19.77,21.87,51.96,42.17,79.73,51.81,5.05,1.75,12.96,3.24,16.92,4.65.33.12.21.57.21.85Z"/><path class="h" d="m256.44,312.11c2.66,2.86-26.73,19.13-31.3,21.57-3.34-3.03-9.5.3-13.32.85-20.08,2.85-40.87,2.94-60.91-.42-6.39-1.07-13.78-4.94-11.21-.42-4.4-2.35-22.49-12.88-26.01-15.23-.94-.63-.46-1.42-.85-1.69-2.38,1.27-6.44-3.46-4.02-5.08,44.48,25.69,102.97,25.85,147.61.42Z"/><path class="h" d="m225.14,333.68c-16.94,9.05-29.04,13.1-48.85,11.84-14.54-.92-24.12-5.2-36.59-11.84-2.57-4.52,4.82-.65,11.21.42,20.03,3.36,40.83,3.27,60.91.42,3.82-.54,9.98-3.88,13.32-.85Z"/><path class="h" d="m325.38,224.13c-9.69,35.65-36.85,69.7-68.94,87.97-44.64,25.42-103.13,25.26-147.61-.42-32.13-18.55-57.89-51.9-68.1-87.55-10.33-36.08-6.05-79.19,11.84-112.29C98.3,27.22,212.85,9.7,283.3,74.41c41.88,38.47,56.97,94.98,42.08,149.73Z"/></g><g id="f"><path class="h" d="m186.52,102.75c14.37.01,10.33,41.02,13.61,62.25,22.2,1.87,83.25,4.41,83.23,18.48s-72.02,21.76-83.23,22.69c-.9,12.73.02,72.14-13.61,72.14s-20.24-57.21-21.85-72.14c-10.99-.59-74.99-9.33-74.99-22.7,0-16.31,51.78-15.63,72.81-17.76,1.48-17.14,9.6-62.98,24.02-62.97Z"/></g><g id="g"><path class="h" d="m162.49,165.72s-.74,17.28-25,17.43-40.07-8.71-40.07-8.71"/><path class="h" d="m118.39,181.38s12.3-3.64,17.93-4.09,22.16-2.13,22.16-2.13"/><path class="h" d="m175.6,264.37s6.74-34.03,6.75-68.57-18.38-41.87-12.23-69.52"/><path class="h" d="m177.8,168.54c4.21,19.39,34.96,37.56,56.71,33.31"/><line class="h" x1="200.13" y1="165" x2="200.13" y2="194.37"/><path class="h" d="m32.48,79.74c-2.75,16.59,12.72,48.29,12.72,48.29"/><path class="h" d="m18.51,103.88c0,14.13,21.21,17.05,16.96,70.56"/><path class="h" d="m8.78,128.02c.75,22.15,25.33,6.81,27.25,57.48"/><line class="h" x1="330.98" y1="174.44" x2="350.77" y2="174.44"/><path class="h" d="m350.89,104.81c8.01,13.31-3.77,51.95-3.77,51.95,0,0,20.94,12.68,17.6,39.03,0,0-21.05,60.29-52.1,94.3s-108.68,56.66-126.09,55.65"/><path class="h" d="m286.67,35.24s37.87,45.97,44.31,61.76-2.28,59.76-2.28,59.76h18.41s17.17,22.09-21.73,67.37"/><path class="h" d="m330.98,97S258.09,18.54,212.48,13.44c-27.92-3.12-85.46-20.65-173.44,57.16"/><path class="h" d="m1.4,196.22s6.75,49.44,46.26,87.88,63.38,61.88,128.63,61.42"/></g></g></g></svg>