<?xml version="1.0" encoding="UTF-8"?>
<svg id="Layer_2" data-name="Layer 2" xmlns="http://www.w3.org/2000/svg" viewBox="0 0 445.57 639.85">
  <defs>
    <style>
      .cls-1 {
        fill: #040404;
      }

      .cls-2 {
        fill: #010101;
      }

      .cls-3 {
        fill: #030303;
      }

      .cls-4 {
        fill: #f0f0f0;
      }

      .cls-5 {
        fill: #fefefe;
      }

      .cls-6 {
        fill: #fdfdfd;
      }

      .cls-7 {
        fill: #969696;
      }

      .cls-8 {
        fill: #d3d3d3;
      }

      .cls-9 {
        fill: #dfdfdf;
      }

      .cls-10 {
        fill: #222;
      }

      .cls-11 {
        fill: #101010;
      }

      .cls-12 {
        fill: #3f3f3f;
      }

      .cls-13 {
        fill: gray;
      }

      .cls-14 {
        fill: #2d2d2d;
      }
    </style>
  </defs>
  <g id="Layer_1-2" data-name="Layer 1">
    <g>
      <path class="cls-2" d="m242.65,1.12c-10.77,26.63-21.62,53.22-32.3,79.89-7.34,18.35-14.41,36.82-21.68,55.2-1.42,3.59-2.83,7.27-4.87,10.51-5.17,8.21-.49,15.92,1.22,23.52,4.88,21.64,10.48,43.12,15.85,64.65,3.62,14.5,7.39,28.96,11,43.46,5.7,22.89,11.22,45.83,17.01,68.7,3.98,15.73,8.31,31.36,12.4,47.06,1.41,5.42,2.54,10.9,3.92,16.87-3.93,0-7.23,0-10.52,0-26.97-.04-53.94-.22-80.91.02-4.43.04-6.02-1.57-6.91-5.41-5.27-22.59-10.56-45.18-16.01-67.72-6.16-25.49-12.51-50.94-18.74-76.42-.58-2.35-.92-4.76-1.66-8.63-2.84,6.51-5.19,11.83-7.48,17.17-1.33,3.1-2.89,6.16-3.79,9.39-1.41,5.11-3.31,10.35-3.34,15.54-.2,36.98.01,73.97.1,110.96,0,1.46,0,2.92,0,4.71H2.07c-.08-1.22-.23-2.49-.23-3.76-.03-134.28-.05-268.57-.07-402.85,0-1.32.14-2.65.22-3.97,13.32,0,26.64,0,39.96,0,1.2.33,2.41.94,3.61.95,8.26.09,16.52.1,24.78.02,1.2-.01,2.38-.64,3.58-.98,7.33,0,14.65,0,21.98,0v136.93c5.01-12.34,9.39-24.84,13.8-37.34,6.2-17.55,12.41-35.1,18.64-52.64,5.45-15.37,10.94-30.73,16.4-46.09,12.03-.01,24.07-.03,36.1-.04,20.6.1,41.19.19,61.79.29Z"/>
      <path class="cls-2" d="m445.57,87.98c-.66.84-1.74,1.6-1.92,2.54-3.61,18.41-13.85,32.55-28.68,43.34-14.05,10.22-30.14,14.92-47.47,14-14.56-.77-27.66-6.19-39.35-14.94-15.15-11.33-24.63-26.64-28.17-44.84-4.38-22.56,1.46-43.06,16.06-61.14,9.01-11.16,20.51-18.14,33.82-22.52,3.65-1.2,7.57-1.54,11.31-2.49,1.25-.31,2.33-1.28,3.48-1.94,4,0,7.99,0,11.99,0,3.96,1,7.91,2.02,11.88,3,28,6.86,46.35,23.85,54.44,51.72.54,1.85,1.73,3.52,2.62,5.27v27.99Z"/>
      <path class="cls-2" d="m445.57,352.92c-.97,1.37-2.47,2.6-2.84,4.11-5.01,20.32-17.62,34.52-35.29,44.91-14.14,8.32-29.62,10.4-45.36,8.72-13.44-1.44-25.72-7.18-36.1-16.06-11.76-10.05-20.52-22.27-24.55-37.47-6.07-22.92-2.07-44.05,11.79-63.21,11.74-16.22,27.91-26.25,47.46-28.68,22.64-2.81,43.83,1.95,61.2,18.4,10.94,10.36,18.9,22.3,21.8,37.31.15.75,1.24,1.32,1.89,1.97v29.99Z"/>
      <path class="cls-5" d="m144.75.87c-5.47,15.36-10.95,30.72-16.4,46.09-6.23,17.54-12.44,35.09-18.64,52.64-4.41,12.5-8.79,25-13.8,37.34V0h48.95c0,.29-.04.58-.11.87Z"/>
      <path class="cls-3" d="m397.62,639.85c-7.13-4.02-12.22-9.66-14.27-17.79-2.79-11.07,1.27-26.73,14.28-30.45,6.5-1.86,13.67-2.35,19.42,3.15.53.51,1.23.84,2.49,1.68v-25.23h9.91c0,15.25,0,30.21,0,45.16,0,6.33.12,12.67-.08,18.99-.05,1.52-1.16,3-1.78,4.5h-5.99c-.43-2.32-.86-4.64-1.3-7.03-3.69,2.43-7.19,4.73-10.69,7.03h-11.99Zm-5.72-24.77c1.04,3.21,1.73,6.59,3.18,9.6,3.37,6.99,13.23,8.31,19.08,3.19,6.66-5.83,6.42-17.76,1.75-23.98-1.36-1.81-3.81-3.51-5.99-3.88-11.98-2.04-17.24,4.74-18.02,15.07Z"/>
      <path class="cls-3" d="m2,639.85v-66.65h10.21v25.61c.03.26.05.52.08.78.26-.23.53-.45.79-.68,1.99-1.06,4.56-1.65,5.86-3.27,5.39-6.73,10.27-13.89,15.67-20.61,1.07-1.34,3.59-1.8,5.53-2.08,2.4-.35,4.89-.08,8.27-.08-8.19,10.96-15.94,21.33-23.71,31.73,8.1,10.31,16.03,20.29,23.79,30.41.96,1.25,1,3.22,1.46,4.85h-9.99c-6.84-8.68-13.68-17.36-20.52-26.04-1.65-2.1-2.75-5.14-6.43-3.79-.27.29-.53.57-.8.86-.04,8.08.03,16.16-.22,24.23-.05,1.6-1.31,3.16-2.01,4.74H2Z"/>
      <path class="cls-1" d="m0,518.88c1.33,0,2.69.17,3.99-.04,4.12-.67,5.99.77,7.67,4.96,4.1,10.25,19.06,8.28,23.42,2.39,2.29-3.1,1.26-9.81-2.36-11.8-4.62-2.54-9.63-4.37-14.47-6.51-5.79-2.56-11.71-4.91-14.79-11.11-5.15-10.38,2.08-25.42,14.95-24.86,5.97.26,12.11-1.19,17.72,2.51,5.87,3.88,9.24,8.82,8.82,16.26h-8.52c-2.99-9.24-11.94-13.64-19.45-9.04-2.25,1.38-4.72,4.7-4.62,7.01.12,2.66,2.4,6.2,4.78,7.59,5.79,3.39,12.2,5.72,18.31,8.57,7.65,3.57,11.89,9.37,11.51,18.08-.35,8.06-7.62,15.52-15.39,15.97-4.85.28-9.86,1.2-14.54.36-8.51-1.54-13.96-7.31-17.03-15.34v-5Z"/>
      <path class="cls-1" d="m289.72,639.85c-5.79-3.53-11.03-7.36-14.39-13.75-7.98-15.18,3.39-36.04,21.11-35.53,14.31.41,22.63,8.32,25.03,17.88,3.54,14.12-3.21,25.74-17.28,30.63-.22.08-.33.5-.49.77h-13.99Zm21.99-24.7c-.02-10.9-4.57-15.25-15.99-15.29-7.14-.02-12.9,6.76-12.99,15.27-.09,8.92,6.11,15.33,14.24,15.83,7.74.48,16.07-6.75,14.74-15.82Z"/>
      <path class="cls-6" d="m445.57,59.99c-.89-1.75-2.08-3.42-2.62-5.27-8.09-27.87-26.44-44.86-54.44-51.72C384.55,2.02,380.6,1,376.64,0c22.98,0,45.96,0,68.93,0v59.99Z"/>
      <path class="cls-3" d="m66.94,639.85c-8.11-4.02-12.06-10.52-11.95-19.6.12-9.12.09-18.24.13-27.37.28-.29.57-.58.85-.87h9.32c0,9.15.04,18.07-.01,26.99-.04,6.33,3.81,11.47,9.01,11.85,6.67.48,11.85-3.34,12.53-10.05.6-5.92.35-11.94.43-17.91.05-3.78,0-7.57,0-11.6h10.49c0,2.02,0,4.1,0,6.18,0,12.46.07,24.92-.08,37.38-.02,1.67-1.15,3.33-1.76,5h-5.99c-.86-2.07-1.73-4.13-2.48-5.93-3.48,2.17-6.5,4.05-9.51,5.93h-10.99Z"/>
      <path class="cls-3" d="m331.68,639.85v-47.76c3.6.24,8.77-2.97,8.1,6,4.91-5.47,9.75-7.33,15.93-7.4,11.45-.14,17.92,7.43,18.49,19.95.38,8.48.16,16.99.03,25.48-.02,1.25-1.03,2.49-1.59,3.73h-8.99c.07-8.63.27-17.27.13-25.9-.04-2.69-.67-5.49-1.63-8.02-1.87-4.93-6.9-7.1-13.04-6.07-4.24.71-7.38,4.92-7.43,10.06-.09,9.3-.13,18.61-.19,27.91-.28.28-.56.57-.84.85-.33.39-.66.77-.98,1.16h-7.99Z"/>
      <path class="cls-3" d="m109.89,592.02h6.8c.13,1.54.27,3.07.47,5.44,2.21-1.82,3.71-3.62,5.63-4.55,10.24-4.97,26.88-2.73,27.98,13.29.72,10.52.6,21.09.86,31.64-.27.28-.54.56-.81.85-.32.39-.65.78-.97,1.18h-7.99c-.1-5.32-.15-10.64-.32-15.95-.16-5.12.13-10.35-.81-15.34-1.38-7.37-5.57-9.64-13.94-8.67-4.76.55-7.65,4.71-7.7,11.27-.06,7.99.08,15.98-.15,23.96-.05,1.6-1.35,3.15-2.07,4.73h-7.99c.05-15.66.1-31.33.15-46.99.28-.28.57-.56.85-.84Z"/>
      <path class="cls-1" d="m171.83,639.85c-5.68-3.75-11.15-7.67-12.06-15.64h9.37c2.96,7.09,6.07,9.01,13.8,7.47,1.79-.36,3.94-2.15,4.61-3.81.54-1.34-.37-4.14-1.58-5.13-2.15-1.76-5.03-2.62-7.59-3.88-4.59-2.25-10.17-3.54-13.55-6.99-6.88-7.03-2.16-19.26,7.89-20.79,5.84-.89,11.95-.94,17.59,2.57,3.66,2.27,5.5,5.52,5.05,9.05-.16,1.27-5.03,1.95-7.73,2.9-2.11-6.09-8.49-8.82-13.44-6.54-2.62,1.21-3.57,5.63-1.06,7.49,3.02,2.24,6.7,3.59,10.09,5.32,3.41,1.73,7.36,2.85,10.15,5.29,7.09,6.18,5.78,17.59-5.62,21.72-.68.25-1.3.65-1.95.98h-13.99Z"/>
      <path class="cls-5" d="m116.89,639.85c.72-1.58,2.03-3.14,2.07-4.73.23-7.98.08-15.97.15-23.96.05-6.56,2.94-10.72,7.7-11.27,8.37-.97,12.56,1.29,13.94,8.67.93,4.99.65,10.21.81,15.34.17,5.32.22,10.63.32,15.95h-24.98Z"/>
      <path class="cls-5" d="m341.5,637.83c.06-9.3.1-18.61.19-27.91.05-5.14,3.19-9.35,7.43-10.06,6.14-1.03,11.16,1.13,13.04,6.07.96,2.52,1.59,5.33,1.63,8.02.14,8.63-.06,17.27-.13,25.9h-23.98c.33-.39.66-.77.98-1.16.28-.28.56-.57.84-.85Z"/>
      <path class="cls-3" d="m217.79,639.85c-5.12-3.35-7.58-7.74-7.2-14.19.49-8.23.04-16.51-.01-24.77-.27-.29-.54-.58-.81-.86-.66-.05-1.32-.15-1.98-.16q-7.18-.1-6.82-7.41c9.98-1.95,10.26-2.26,11.13-12.39h7.55c.05,1.02.13,1.97.13,2.91.05,10.17-1.08,8.78,8.6,8.87.96,0,1.93,0,3.14,0v7h-10.68c0,9.7-.13,19.25.17,28.79.04,1.1,2.33,2.48,3.83,3.09,1.27.52,2.92.11,4.48.11.75,2.37,1.45,4.57,2.19,6.93-1.35.75-2.54,1.41-3.74,2.07h-9.99Z"/>
      <path class="cls-5" d="m9.99,639.85c.7-1.58,1.96-3.14,2.01-4.74.25-8.07.18-16.15.22-24.23.27-.29.53-.57.8-.86,3.68-1.35,4.78,1.69,6.43,3.79,6.84,8.68,13.68,17.36,20.52,26.04H9.99Z"/>
      <path class="cls-7" d="m242.65,1.12c-20.6-.1-41.19-.19-61.79-.29-.01-.28-.02-.55-.03-.83h61.94c-.04.37-.08.75-.12,1.12Z"/>
      <path class="cls-6" d="m409.6,639.85c3.5-2.3,7-4.6,10.69-7.03.44,2.4.87,4.71,1.3,7.03h-11.99Z"/>
      <path class="cls-13" d="m180.83,0c0,.28.02.55.03.83-12.03.01-24.07.03-36.1.04.06-.29.1-.58.11-.87h35.97Z"/>
      <path class="cls-6" d="m77.92,639.85c3.01-1.88,6.03-3.76,9.51-5.93.75,1.79,1.61,3.86,2.48,5.93h-11.99Z"/>
      <path class="cls-12" d="m73.93,0c-1.19.34-2.38.97-3.58.98-8.26.08-16.52.07-24.78-.02C44.37.94,43.16.33,41.96,0c10.66,0,21.31,0,31.97,0Z"/>
      <path class="cls-11" d="m246.76,639.85c.15-.67.29-1.34.44-2.02,3.14,0,6.27,0,9.41,0l-1.85,2.01h-7.99Z"/>
      <path class="cls-4" d="m149.86,639.85c.32-.39.65-.78.97-1.18.33.03.66.06.99.09.01.36.02.73.04,1.09h-2Z"/>
      <path class="cls-1" d="m117.89,508.68c-.61-6.21-2.79-10.2-9.02-10.82-5.89-.59-8.46,2.93-10.26,7.86h-9.29c1.96-10.57,6.92-14.94,17.39-14.77,3.82.06,7.9.4,11.36,1.83,5.9,2.44,8.76,7.5,8.81,13.97.04,5.99-.13,11.98.09,17.97.07,1.83.66,4.01,1.8,5.36,2.95,3.48,3.13,3.33,2.94,7.27-4.3,2.34-7.93,2.13-10.87-2.35-.35-.53-2.8-.35-3.73.29-7.01,4.83-14.41,6.65-22.38,2.88-4.91-2.33-7.89-6.42-7.75-12.02.13-5.55,2.3-10.36,7.93-12.16,5.61-1.79,11.47-2.8,17.23-4.13,1.94-.45,3.9-.79,5.76-1.16Zm-.25,8.17c-3.59.37-6.86.45-10.01,1.11-2.75.58-5.79,1.28-7.9,2.94-1.58,1.24-3.09,4.6-2.46,6.1.86,2.07,3.62,4.37,5.84,4.69,8.72,1.25,14.99-5.22,14.54-14.84Z"/>
      <path class="cls-1" d="m177.59,517.22c2.1,6.97,4.01,12.75,11.96,14.26,4.76.91,9.34-.37,11.55-3.18,3.63-4.62,7.78-3.03,11.94-3.48-1.06,7.9-9.1,14.57-18,15.05-12.46.66-21.72-4.79-24.89-15.26-3.64-12.02-1.17-25.13,9.83-31.39,7.2-4.1,15.16-3.59,22.26-.85,7.7,2.97,10.87,10.24,11.54,18.36.16,1.96.02,3.95.02,6.48h-36.2Zm27.15-7.55c-2.16-9.38-5.49-11.49-16.31-10.78-5,.33-8.63,4.47-9.34,10.78h25.65Z"/>
      <path class="cls-3" d="m223.94,538.45v-47.16h7.33c.48,1.45,1.01,3.04,1.95,5.87,4.79-7.15,11.34-6.02,17.66-6.38,7.7-.44,13.93,6.31,14.6,12.48,1.18,10.81,1.02,21.77,1.16,32.67.01.97-1.77,2.54-2.95,2.81-2.04.47-4.27.13-7.08.13,0-8.04.08-15.94-.05-23.85-.04-2.59-.31-5.27-1.05-7.74-1.94-6.45-6.87-8.87-14.39-7.44-4.19.8-6.9,5.1-6.9,10.87.01,9.14,0,18.28,0,27.73h-10.28Z"/>
      <path class="cls-1" d="m275.05,523.97h9.25c3.68,7.56,8.77,9.96,14.74,7.04,4.88-2.39,5.36-6.87.65-9.52-3.58-2.01-7.63-3.22-11.54-4.59-6.83-2.39-11.34-7.19-11.43-12.46-.11-6.17,2.58-11.26,8.71-12.57,5.4-1.15,11.44-.97,16.88.13,5.51,1.12,8.5,5.74,8.92,11.72h-8.76c-1.97-4.33-6.91-7.17-11.34-5.68-1.78.6-4.21,3.12-4.11,4.6.15,2.15,1.88,4.92,3.76,6.05,3.22,1.94,7.16,2.65,10.66,4.19,8.85,3.89,11.98,8.15,11.25,14.87-.63,5.78-5.31,10.3-13.55,11.86-9.23,1.75-19-1.02-22.47-10.25-.62-1.64-1.02-3.37-1.62-5.39Z"/>
      <path class="cls-3" d="m256.61,637.84h-9.41v-37.86h-8.97q-.98-8.57,8.03-9.46c.51-3.7.63-7.48,1.61-11.03,1.5-5.42,4.82-7.61,10.31-7.63,1.99,0,3.99-.09,5.98.02,5.34.29,6.74,2.56,4.53,7.26-.41.87-.93,1.69-1.4,2.53-9.51-3.34-11.22-1.72-10.23,10.09h11.44v7.25h-10.73c-.28.29-.56.57-.84.86-.11,12.66-.21,25.31-.32,37.97Z"/>
      <path class="cls-3" d="m61.04,500.28q-10.41-1.13-9.73-8.01c9.04-.99,10.13-2.19,10.91-12.17h8.62v10.7h10.84v8.09h-10.59c0,9.56-.17,18.67.08,27.77.12,4.27,2.56,5.11,8.07,3.28.53,1.13,1.16,2.23,1.58,3.41.43,1.19.65,2.46.96,3.71-8.87,5.4-16.32,3.63-19.97-4.82-.49-1.13-.73-2.45-.74-3.68-.06-9.32-.03-18.64-.03-28.28Z"/>
      <path class="cls-3" d="m152.94,499.14c0,8.79-.05,16.93.02,25.08.05,6.55,1.89,7.8,8.25,5.75.52,1.16,1.11,2.3,1.53,3.5.43,1.2.69,2.45,1.11,4-4.23,3.12-9.28,3.5-13.8,1.76-5.02-1.93-7.27-6.36-7.08-12.11.29-8.93.08-17.88.08-26.76-3.4-.46-6.72-.27-9.31-1.56-1.14-.57-.79-4.14-1.11-6.34,10.29-1.5,11.09-2.38,11.31-12.22h8.76v10.65h10.96v8.26h-10.71Z"/>
      <path class="cls-14" d="m55.97,592.01c-.28.29-.57.58-.85.87.28-.29.57-.58.85-.87Z"/>
      <path class="cls-11" d="m109.89,592.02c-.28.28-.57.56-.85.84.28-.28.57-.56.85-.84Z"/>
      <path class="cls-8" d="m13.08,598.91c-.26.23-.53.45-.79.68-.03-.26-.05-.52-.08-.78.3-.05.59-.02.87.1Z"/>
      <path class="cls-9" d="m256.92,599.87c.28-.29.56-.57.84-.86-.28.29-.56.57-.84.86Z"/>
      <path class="cls-8" d="m209.77,600.02c.27.29.54.58.81.86-.27-.29-.54-.58-.81-.86Z"/>
      <path class="cls-14" d="m151.82,638.76c-.33-.03-.66-.06-.99-.09.27-.28.54-.56.81-.85.23.28.29.59.18.93Z"/>
      <path class="cls-6" d="m391.9,615.08c.77-10.33,6.04-17.11,18.02-15.07,2.18.37,4.63,2.07,5.99,3.88,4.67,6.23,4.91,18.15-1.75,23.98-5.85,5.12-15.71,3.8-19.08-3.19-1.45-3.01-2.14-6.39-3.18-9.6Z"/>
      <path class="cls-8" d="m13.01,610.02c-.27.29-.53.57-.8.86.27-.29.53-.57.8-.86Z"/>
      <path class="cls-6" d="m311.71,615.14c1.34,9.07-6.99,16.3-14.74,15.82-8.13-.5-14.34-6.92-14.24-15.83.09-8.51,5.85-15.29,12.99-15.27,11.43.03,15.98,4.38,15.99,15.29Z"/>
      <path class="cls-10" d="m341.5,637.83c-.28.28-.56.57-.84.85.28-.28.56-.57.84-.85Z"/>
      <path class="cls-6" d="m117.64,516.85c.46,9.62-5.81,16.09-14.54,14.84-2.22-.32-4.98-2.61-5.84-4.69-.63-1.51.89-4.87,2.46-6.1,2.12-1.66,5.15-2.36,7.9-2.94,3.15-.66,6.42-.74,10.01-1.11Z"/>
      <path class="cls-6" d="m204.73,509.67h-25.65c.71-6.31,4.35-10.45,9.34-10.78,10.81-.71,14.14,1.4,16.31,10.78Z"/>
    </g>
  </g>
</svg>